<?xml version="1.0" encoding="UTF-8" standalone="no"?>
<svg
   height="16px"
   viewBox="0 0 16 16"
   width="16px"
   version="1.1"
   id="svg12"
   sodipodi:docname="io.gitlab.adhami3310.Switcheroo-symbolic.svg"
   inkscape:version="1.2.2 (b0a8486541, 2022-12-01)"
   xmlns:inkscape="http://www.inkscape.org/namespaces/inkscape"
   xmlns:sodipodi="http://sodipodi.sourceforge.net/DTD/sodipodi-0.dtd"
   xmlns="http://www.w3.org/2000/svg"
   xmlns:svg="http://www.w3.org/2000/svg">
  <defs
     id="defs16" />
  <sodipodi:namedview
     id="namedview14"
     pagecolor="#ffffff"
     bordercolor="#000000"
     borderopacity="0.25"
     inkscape:showpageshadow="2"
     inkscape:pageopacity="0.0"
     inkscape:pagecheckerboard="0"
     inkscape:deskcolor="#d1d1d1"
     showgrid="false"
     inkscape:zoom="48.875"
     inkscape:cx="8.0306905"
     inkscape:cy="8"
     inkscape:window-width="1920"
     inkscape:window-height="1011"
     inkscape:window-x="0"
     inkscape:window-y="0"
     inkscape:window-maximized="1"
     inkscape:current-layer="svg12" />
  <path
     d="m 3 0 c -1.644531 0 -3 1.355469 -3 3 v 9 c 0 1.644531 1.355469 3 3 3 v -2 c -0.570312 0 -1 -0.429688 -1 -1 v -9 c 0 -0.570312 0.429688 -1 1 -1 h 9 c 0.570312 0 1 0.429688 1 1 v 1 h 2 v -1 c 0 -1.644531 -1.355469 -3 -3 -3 z m 0 0"
     fill="#241f31"
     id="path2" />
  <path
     style="color:#000000;fill:#241f31;stroke-linecap:round;stroke-linejoin:round;-inkscape-stroke:none"
     d="m 172,180 a 1,1 0 0 0 -1,1 v 3 c 0,0.56601 -0.43399,1 -1,1 h -2 a 1,1 0 0 0 -1,1 1,1 0 0 0 1,1 h 2 c 1.64493,0 3,-1.35507 3,-3 v -3 a 1,1 0 0 0 -1,-1 z"
     id="path4"
     transform="matrix(-1 0 -0 -1 178 192)" />
  <path
     d="m 3 11 h 6 l -3 5 z m 0 0"
     fill="#241f31"
     id="path6" />
  <path
     d="m 16 10 h -6 l 3 -5 z m 0 0"
     fill="#241f31"
     id="path8" />
  <path
     style="color:#000000;fill:#241f31;stroke-linecap:round;stroke-linejoin:round;-inkscape-stroke:none"
     d="m 167,176 c -1.64493,0 -3,1.35507 -3,3 v 3 a 1,1 0 0 0 1,1 1,1 0 0 0 1,-1 v -3 c 0,-0.56601 0.43399,-1 1,-1 h 2 a 1,1 0 0 0 1,-1 1,1 0 0 0 -1,-1 z"
     id="path10"
     transform="matrix(-1 0 -0 -1 178 192)" />
</svg>
