<svg width="128" height="128" fill="none" xmlns="http://www.w3.org/2000/svg"><g clip-path="url(#a)"><path fill-rule="evenodd" clip-rule="evenodd" d="M20 10h10v4.13a3 3 0 0 0 3 3h8a3 3 0 0 0 3-3V10h40v4.13a3 3 0 0 0 3 3h8a3 3 0 0 0 3-3V10h10v110H98v-3.111a3 3 0 0 0-3-3h-8a3 3 0 0 0-3 3V120H44v-3.111a3 3 0 0 0-3-3h-8a3 3 0 0 0-3 3V120H20V10Zm67 18.333a3 3 0 0 0-3 3v4.186a3 3 0 0 0 3 3h8a3 3 0 0 0 3-3v-4.186a3 3 0 0 0-3-3h-8Zm-3 24.39a3 3 0 0 1 3-3h8a3 3 0 0 1 3 3v4.184a3 3 0 0 1-3 3h-8a3 3 0 0 1-3-3v-4.185Zm3 18.388a3 3 0 0 0-3 3v4.185a3 3 0 0 0 3 3h8a3 3 0 0 0 3-3v-4.185a3 3 0 0 0-3-3h-8ZM84 95.5a3 3 0 0 1 3-3h8a3 3 0 0 1 3 3v4.185a3 3 0 0 1-3 3h-8a3 3 0 0 1-3-3V95.5ZM33 28.333a3 3 0 0 0-3 3v4.186a3 3 0 0 0 3 3h8a3 3 0 0 0 3-3v-4.186a3 3 0 0 0-3-3h-8Zm-3 24.39a3 3 0 0 1 3-3h8a3 3 0 0 1 3 3v4.184a3 3 0 0 1-3 3h-8a3 3 0 0 1-3-3v-4.185Zm3 18.388a3 3 0 0 0-3 3v4.185a3 3 0 0 0 3 3h8a3 3 0 0 0 3-3v-4.185a3 3 0 0 0-3-3h-8ZM30 95.5a3 3 0 0 1 3-3h8a3 3 0 0 1 3 3v4.185a3 3 0 0 1-3 3h-8a3 3 0 0 1-3-3V95.5Z" fill="#813D9C"/><path fill-rule="evenodd" clip-rule="evenodd" d="M20 8h10v4.13a3 3 0 0 0 3 3h8a3 3 0 0 0 3-3V8h40v4.13a3 3 0 0 0 3 3h8a3 3 0 0 0 3-3V8h10v110H98v-3.111a3 3 0 0 0-3-3h-8a3 3 0 0 0-3 3V118H44v-3.111a3 3 0 0 0-3-3h-8a3 3 0 0 0-3 3V118H20V8Zm67 18.333a3 3 0 0 0-3 3v4.186a3 3 0 0 0 3 3h8a3 3 0 0 0 3-3v-4.186a3 3 0 0 0-3-3h-8Zm-3 24.39a3 3 0 0 1 3-3h8a3 3 0 0 1 3 3v4.184a3 3 0 0 1-3 3h-8a3 3 0 0 1-3-3v-4.185Zm3 18.388a3 3 0 0 0-3 3v4.185a3 3 0 0 0 3 3h8a3 3 0 0 0 3-3v-4.185a3 3 0 0 0-3-3h-8ZM84 93.5a3 3 0 0 1 3-3h8a3 3 0 0 1 3 3v4.185a3 3 0 0 1-3 3h-8a3 3 0 0 1-3-3V93.5ZM33 26.333a3 3 0 0 0-3 3v4.186a3 3 0 0 0 3 3h8a3 3 0 0 0 3-3v-4.186a3 3 0 0 0-3-3h-8Zm-3 24.39a3 3 0 0 1 3-3h8a3 3 0 0 1 3 3v4.184a3 3 0 0 1-3 3h-8a3 3 0 0 1-3-3v-4.185Zm3 18.388a3 3 0 0 0-3 3v4.185a3 3 0 0 0 3 3h8a3 3 0 0 0 3-3v-4.185a3 3 0 0 0-3-3h-8ZM30 93.5a3 3 0 0 1 3-3h8a3 3 0 0 1 3 3v4.185a3 3 0 0 1-3 3h-8a3 3 0 0 1-3-3V93.5Z" fill="url(#b)"/><path fill-rule="evenodd" clip-rule="evenodd" d="M109.944 54.25c2.24-8.36-2.722-16.953-11.082-19.194-8.224-2.203-16.673 2.561-19.08 10.674h-.005l-.079.295a14.524 14.524 0 0 0-.06.227l-8.63 32.208 10.77 2.886 11.067-15.6c7.656.975 15.046-3.833 17.099-11.495ZM96.669 43.24a7.2 7.2 0 1 1-3.727 13.91 7.2 7.2 0 0 1 3.727-13.91Z" fill="#F5C211"/><path d="m80.008 80.872-9.001-2.412-10.158 37.909a6.5 6.5 0 0 0 4.597 7.961l2.722.729 11.84-44.187Z" fill="url(#c)"/><path d="m80.008 80.872-1.636-.438-11.84 44.187 1.636.438 11.84-44.187Z" fill="#DEDDDA"/><path fill-rule="evenodd" clip-rule="evenodd" d="M43.739 54.25c-2.24-8.36 2.721-16.953 11.082-19.194 8.223-2.203 16.673 2.561 19.079 10.675l.005-.002.107.397.003.012.003.013 8.658 32.31-10.77 2.885-11.068-15.6c-7.656.975-15.046-3.833-17.1-11.495Zm13.274-11.01a7.2 7.2 0 1 0 3.727 13.91 7.2 7.2 0 0 0-3.727-13.91Z" fill="#F6D32D"/><path d="m73.674 80.872 9.001-2.412 10.158 37.909a6.5 6.5 0 0 1-4.596 7.961l-2.723.729-11.84-44.187Z" fill="url(#d)"/><path d="m73.674 80.872 1.637-.438 11.84 44.187-1.637.438-11.84-44.187Z" fill="#DEDDDA"/><path d="m66 64 8 12" stroke="#fff" stroke-opacity=".5" stroke-width="3" stroke-linecap="round"/></g><defs><linearGradient id="b" x1="108" y1="118" x2="108" y2="8" gradientUnits="userSpaceOnUse"><stop stop-color="#C061CB"/><stop offset="1" stop-color="#3584E4"/></linearGradient><linearGradient id="c" x1="75.507" y1="79.666" x2="63.668" y2="123.853" gradientUnits="userSpaceOnUse"><stop offset=".234" stop-color="#C0BFBC"/><stop offset=".646" stop-color="#DEDDDA"/><stop offset="1" stop-color="#C0BFBC"/></linearGradient><linearGradient id="d" x1="78.175" y1="79.666" x2="90.015" y2="123.853" gradientUnits="userSpaceOnUse"><stop stop-color="#C0BFBC"/><stop offset=".646" stop-color="#DEDDDA"/><stop offset="1" stop-color="#C0BFBC"/></linearGradient><clipPath id="a"><path fill="#fff" d="M0 0h128v128H0z"/></clipPath></defs></svg>