<?xml version="1.0" encoding="UTF-8"?>
<svg height="128px" viewBox="0 0 128 128" width="128px" xmlns="http://www.w3.org/2000/svg" xmlns:xlink="http://www.w3.org/1999/xlink">
    <linearGradient id="a" gradientUnits="userSpaceOnUse" x1="22.00001" x2="128.00001" y1="67" y2="67">
        <stop offset="0" stop-color="#5c596d"/>
        <stop offset="0.811321" stop-color="#b3b2c0"/>
        <stop offset="1" stop-color="#838289"/>
    </linearGradient>
    <linearGradient id="b" gradientUnits="userSpaceOnUse" x1="37.99999076843" x2="119.99995688743" y1="101.99995831778" y2="19.99998868154">
        <stop offset="0" stop-color="#a3b6d1"/>
        <stop offset="0.195122" stop-color="#a9c5f0"/>
        <stop offset="0.45122" stop-color="#dbdeff"/>
        <stop offset="0.707317" stop-color="#b7c5ef"/>
        <stop offset="1" stop-color="#8fb2dd"/>
    </linearGradient>
    <linearGradient id="c" gradientUnits="userSpaceOnUse" x1="3.00001" x2="47.00001" y1="70" y2="70">
        <stop offset="0" stop-color="#9a3800"/>
        <stop offset="0.0909091" stop-color="#ed5300"/>
        <stop offset="0.181818" stop-color="#c64600"/>
        <stop offset="0.818182" stop-color="#c64600"/>
        <stop offset="0.909091" stop-color="#ed5300"/>
        <stop offset="1" stop-color="#9a3800"/>
    </linearGradient>
    <linearGradient id="d" gradientTransform="matrix(1.25 0 0 1.222225 -15 -41.33362)" gradientUnits="userSpaceOnUse" x1="20" x2="44" y1="122.999893" y2="122.999893">
        <stop offset="0" stop-color="#adadaa"/>
        <stop offset="0.0833333" stop-color="#d7d6d5"/>
        <stop offset="0.166667" stop-color="#afafab"/>
        <stop offset="0.654803" stop-color="#b8b8b4"/>
        <stop offset="0.938916" stop-color="#a3a29f"/>
        <stop offset="1" stop-color="#8d8b88"/>
    </linearGradient>
    <linearGradient id="e" gradientTransform="matrix(1.25 0 0 1.125003 -14.99999 -28.500411)" gradientUnits="userSpaceOnUse" x1="19.500002" x2="44.5" y1="128.000015" y2="128.000015">
        <stop offset="0" stop-color="#e0e0e0"/>
        <stop offset="1" stop-color="#d1ccc5"/>
    </linearGradient>
    <linearGradient id="f" gradientTransform="matrix(1.166667 0 0 0.875001 -12.33333 3.49984)" gradientUnits="userSpaceOnUse" x1="19.500002" x2="44.5" y1="128.000015" y2="128.000015">
        <stop offset="0" stop-color="#545251"/>
        <stop offset="0.471382" stop-color="#7d7c7a"/>
        <stop offset="1" stop-color="#908e8d"/>
    </linearGradient>
    <linearGradient id="g" gradientUnits="userSpaceOnUse" x1="3.00001" x2="47.00001" y1="91" y2="91">
        <stop offset="0" stop-color="#ff8500" stop-opacity="0.152941"/>
        <stop offset="0.185933" stop-color="#ff7c00" stop-opacity="0.341176"/>
        <stop offset="1" stop-color="#ffa200" stop-opacity="0.137255"/>
    </linearGradient>
    <path d="m 75 14 c -29.269531 0 -53 23.730469 -53 53 s 23.730469 53 53 53 s 53 -23.730469 53 -53 s -23.730469 -53 -53 -53 z m 0 46 c 3.867188 0 7 3.132812 7 7 s -3.132812 7 -7 7 s -7 -3.132812 -7 -7 s 3.132812 -7 7 -7 z m 0 0" fill="url(#a)"/>
    <path d="m 75 12 c -29.269531 0 -53 23.730469 -53 53 s 23.730469 53 53 53 s 53 -23.730469 53 -53 s -23.730469 -53 -53 -53 z m 0 45.933594 c 3.902344 0 7.066406 3.164062 7.066406 7.066406 s -3.164062 7.066406 -7.066406 7.066406 c -0.175781 -0.027344 -0.347656 -0.0625 -0.519531 -0.101562 c -0.574219 -0.042969 -1.144531 -0.15625 -1.695313 -0.339844 c -0.308594 -0.101562 -0.609375 -0.226562 -0.90625 -0.375 c -0.546875 -0.269531 -1.0625 -0.613281 -1.519531 -1.015625 c -0.210937 -0.1875 -0.40625 -0.382813 -0.59375 -0.59375 c -0.402344 -0.457031 -0.746094 -0.972656 -1.015625 -1.519531 c -0.148438 -0.296875 -0.273438 -0.597656 -0.375 -0.90625 c -0.183594 -0.550782 -0.296875 -1.121094 -0.339844 -1.695313 c -0.039062 -0.171875 -0.074218 -0.34375 -0.101562 -0.519531 c 0.027344 -0.175781 0.0625 -0.347656 0.101562 -0.519531 c 0.042969 -0.574219 0.15625 -1.144531 0.339844 -1.695313 c 0.101562 -0.308594 0.226562 -0.609375 0.375 -0.90625 c 0.269531 -0.546875 0.613281 -1.0625 1.015625 -1.519531 c 0.1875 -0.210937 0.382813 -0.40625 0.59375 -0.59375 c 0.457031 -0.402344 0.972656 -0.746094 1.519531 -1.015625 c 0.296875 -0.148438 0.597656 -0.273438 0.90625 -0.375 c 0.550782 -0.183594 1.121094 -0.296875 1.695313 -0.339844 c 0.171875 -0.039062 0.34375 -0.074218 0.519531 -0.101562 z m 0 0" fill="#d1d4db"/>
    <path d="m 75 14 c -28.167969 0 -51 22.832031 -51 51 s 22.832031 51 51 51 s 51 -22.832031 51 -51 s -22.832031 -51 -51 -51 z m 0 44 c 0.296875 0 0.59375 0.019531 0.890625 0.058594 c 0.015625 0.003906 0.027344 0.003906 0.042969 0.007812 c 0.289062 0.035156 0.574218 0.09375 0.859375 0.167969 c 0.015625 0.003906 0.03125 0.007813 0.046875 0.015625 c 0.285156 0.074219 0.566406 0.171875 0.839844 0.285156 c 0.269531 0.109375 0.535156 0.242188 0.789062 0.386719 c 0.019531 0.011719 0.035156 0.019531 0.050781 0.03125 c 0.253907 0.144531 0.496094 0.308594 0.726563 0.484375 c 0.007812 0.003906 0.011718 0.007812 0.015625 0.011719 c 0.007812 0.003906 0.011719 0.007812 0.015625 0.015625 c 0.238281 0.179687 0.460937 0.375 0.671875 0.585937 c 0.210937 0.210938 0.40625 0.433594 0.585937 0.671875 c 0.007813 0.003906 0.011719 0.011719 0.019532 0.015625 c 0 0.003907 0.003906 0.007813 0.007812 0.015625 c 0.175781 0.230469 0.339844 0.472656 0.484375 0.726563 c 0.011719 0.015625 0.019531 0.035156 0.03125 0.050781 c 0.144531 0.253906 0.277344 0.519531 0.390625 0.789062 c 0.109375 0.273438 0.207031 0.554688 0.285156 0.839844 c 0.003906 0.015625 0.007813 0.03125 0.011719 0.050782 c 0.074219 0.28125 0.132813 0.566406 0.171875 0.855468 c 0 0.015625 0.003906 0.027344 0.003906 0.042969 c 0.039063 0.296875 0.058594 0.59375 0.058594 0.890625 c -0.003906 0.890625 -0.179688 1.773438 -0.515625 2.597656 c -0.015625 0.042969 -0.03125 0.085938 -0.046875 0.132813 c -0.34375 0.796875 -0.832031 1.527343 -1.441406 2.148437 c -0.039063 0.039063 -0.078125 0.078125 -0.117188 0.117188 c -0.621094 0.609375 -1.351562 1.097656 -2.148437 1.441406 c -0.046875 0.015625 -0.089844 0.03125 -0.132813 0.046875 c -0.824218 0.335937 -1.707031 0.511719 -2.597656 0.515625 c -0.890625 -0.003906 -1.773438 -0.179688 -2.597656 -0.519531 c -0.042969 -0.011719 -0.085938 -0.027344 -0.132813 -0.046875 c -0.796875 -0.339844 -1.527343 -0.828125 -2.148437 -1.4375 c -0.039063 -0.039063 -0.078125 -0.078125 -0.117188 -0.117188 c -0.609375 -0.621094 -1.097656 -1.351562 -1.441406 -2.152344 c -0.015625 -0.042968 -0.03125 -0.085937 -0.042969 -0.128906 c -0.339843 -0.824218 -0.515625 -1.707031 -0.519531 -2.597656 c 0.003906 -0.890625 0.179688 -1.773438 0.515625 -2.597656 c 0.015625 -0.042969 0.03125 -0.085938 0.046875 -0.132813 c 0.34375 -0.796875 0.832031 -1.527343 1.441406 -2.148437 l 0.117188 -0.117188 c 0.621094 -0.609375 1.351562 -1.097656 2.148437 -1.441406 c 0.046875 -0.015625 0.089844 -0.03125 0.132813 -0.046875 c 0.824218 -0.335937 1.707031 -0.511719 2.597656 -0.515625 z m 0 0" fill="url(#b)"/>
    <path d="m 75 48 c -9.390625 0 -17 7.609375 -17 17 s 7.609375 17 17 17 s 17 -7.609375 17 -17 s -7.609375 -17 -17 -17 z m 0 10 c 3.867188 0 7 3.132812 7 7 s -3.132812 7 -7 7 s -7 -3.132812 -7 -7 s 3.132812 -7 7 -7 z m 0 0" fill="#757c9b"/>
    <path d="m 46.984375 26.683594 c -14.953125 9.785156 -23.972656 26.445312 -23.984375 44.316406 c 0.03125 4.085938 0.539062 8.152344 1.503906 12.125 c 3.210938 10.058594 9.347656 18.808594 17.40625 25.261719 c 2.980469 -1.160157 5.089844 -4.039063 5.089844 -7.4375 v -74 c 0 -0.089844 -0.011719 -0.175781 -0.015625 -0.265625 z m 0 0" fill-opacity="0.129412"/>
    <path d="m 11 32 h 28 c 4.417969 0 8 3.582031 8 8 v 60 c 0 4.417969 -3.582031 8 -8 8 h -28 c -4.417969 0 -8 -3.582031 -8 -8 v -60 c 0 -4.417969 3.582031 -8 8 -8 z m 0 0" fill="url(#c)"/>
    <path d="m 75 50 c -8.285156 0 -15 6.714844 -15 15 s 6.714844 15 15 15 s 15 -6.714844 15 -15 s -6.714844 -15 -15 -15 z m 0 8 c 0.152344 0 0.300781 0.003906 0.453125 0.015625 c 0.035156 0.003906 0.070313 0.003906 0.105469 0.007813 c 0.113281 0.007812 0.226562 0.023437 0.339844 0.035156 c 0.042968 0.007812 0.085937 0.011718 0.128906 0.015625 c 0.007812 0.003906 0.011718 0.003906 0.019531 0.003906 c 0.132813 0.023437 0.261719 0.046875 0.394531 0.074219 c 0.035156 0.007812 0.066406 0.015625 0.101563 0.019531 c 0.125 0.03125 0.253906 0.0625 0.378906 0.097656 c 0.023437 0.007813 0.050781 0.015625 0.074219 0.019531 c 0.136718 0.042969 0.269531 0.085938 0.402344 0.136719 c 0.039062 0.015625 0.078124 0.03125 0.121093 0.042969 c 0.109375 0.042969 0.21875 0.089844 0.332031 0.136719 c 0.027344 0.015625 0.058594 0.027343 0.089844 0.042969 c 0.121094 0.054687 0.238282 0.113281 0.359375 0.175781 c 0.003907 0.003906 0.007813 0.007812 0.015625 0.011719 c 0.042969 0.023437 0.085938 0.046874 0.128906 0.074218 c 0.089844 0.050782 0.183594 0.105469 0.273438 0.164063 c 0.035156 0.019531 0.074219 0.042969 0.109375 0.066406 c 0.125 0.082031 0.246094 0.164063 0.363281 0.253906 c 0 0 0.003906 0 0.003906 0.003907 c 0.007813 0.003906 0.011719 0.007812 0.019532 0.015624 c 0.105468 0.078126 0.210937 0.160157 0.3125 0.25 c 0.03125 0.027344 0.0625 0.054688 0.097656 0.082032 c 0.109375 0.097656 0.21875 0.199218 0.324219 0.304687 s 0.207031 0.214844 0.304687 0.328125 c 0.027344 0.03125 0.054688 0.0625 0.085938 0.097656 c 0.085937 0.097657 0.167968 0.203126 0.25 0.308594 c 0.003906 0.007813 0.007812 0.011719 0.015625 0.019532 c 0 0 0 0.003906 0.003906 0.003906 c 0.085937 0.117187 0.167969 0.238281 0.25 0.363281 c 0.023437 0.035156 0.046875 0.074219 0.070313 0.109375 c 0.054687 0.089844 0.109374 0.183594 0.164062 0.277344 c 0.023438 0.039062 0.046875 0.082031 0.070312 0.128906 c 0.003907 0.003906 0.007813 0.007812 0.011719 0.015625 c 0.0625 0.117187 0.121094 0.234375 0.175781 0.355469 c 0.015626 0.03125 0.027344 0.0625 0.042969 0.09375 c 0.046875 0.109375 0.09375 0.21875 0.136719 0.332031 c 0.011719 0.039063 0.027344 0.078125 0.042969 0.121094 c 0.050781 0.128906 0.09375 0.261719 0.136719 0.398437 c 0.003906 0.023438 0.011718 0.050782 0.019531 0.078125 c 0.035156 0.121094 0.066406 0.25 0.097656 0.375 c 0.003906 0.035157 0.011719 0.066407 0.019531 0.101563 c 0.027344 0.132812 0.050782 0.265625 0.074219 0.398437 c 0 0.003907 0 0.011719 0.003906 0.015625 c 0.003907 0.042969 0.007813 0.085938 0.015625 0.132813 c 0.011719 0.109375 0.027344 0.222656 0.035156 0.339843 c 0.003907 0.03125 0.003907 0.066407 0.007813 0.101563 c 0.011719 0.152344 0.015625 0.300781 0.015625 0.453125 c -0.003906 0.414062 -0.042969 0.824219 -0.121094 1.230469 c -0.019531 0.109375 -0.042968 0.214843 -0.070312 0.320312 c -0.074219 0.316407 -0.167969 0.625 -0.28125 0.925781 c -0.035156 0.097657 -0.070313 0.195313 -0.105469 0.289063 c -0.164063 0.378906 -0.355469 0.738281 -0.578125 1.078125 c -0.039062 0.058594 -0.082031 0.113281 -0.125 0.167969 c -0.199219 0.285156 -0.421875 0.554687 -0.660156 0.804687 c -0.078125 0.082032 -0.160156 0.164063 -0.238282 0.238282 c -0.253906 0.242187 -0.523437 0.464843 -0.804687 0.664062 c -0.058594 0.042969 -0.113281 0.085938 -0.167969 0.125 c -0.34375 0.222656 -0.703125 0.414062 -1.078125 0.574219 c -0.097656 0.039062 -0.195312 0.074219 -0.289062 0.109375 c -0.304688 0.113281 -0.613281 0.207031 -0.925781 0.28125 c -0.109376 0.027344 -0.214844 0.050781 -0.324219 0.070312 c -0.40625 0.078125 -0.816407 0.117188 -1.230469 0.121094 c -0.414062 -0.003906 -0.824219 -0.042969 -1.230469 -0.121094 c -0.109375 -0.019531 -0.214843 -0.042968 -0.320312 -0.070312 c -0.316407 -0.074219 -0.625 -0.167969 -0.925781 -0.28125 c -0.097657 -0.035156 -0.195313 -0.070313 -0.289063 -0.105469 c -0.378906 -0.164063 -0.738281 -0.355469 -1.078125 -0.578125 c -0.058594 -0.039062 -0.113281 -0.082031 -0.167969 -0.125 c -0.285156 -0.199219 -0.554687 -0.421875 -0.804687 -0.660156 c -0.082032 -0.078125 -0.164063 -0.160156 -0.238282 -0.238282 c -0.242187 -0.253906 -0.464843 -0.523437 -0.664062 -0.804687 c -0.042969 -0.058594 -0.085938 -0.113281 -0.125 -0.167969 c -0.222656 -0.34375 -0.414062 -0.703125 -0.574219 -1.078125 c -0.039062 -0.097656 -0.074219 -0.195312 -0.109375 -0.289062 c -0.113281 -0.304688 -0.207031 -0.613281 -0.28125 -0.925781 c -0.027344 -0.109376 -0.050781 -0.214844 -0.070312 -0.324219 c -0.078125 -0.40625 -0.117188 -0.816407 -0.121094 -1.230469 c 0.003906 -0.414062 0.042969 -0.824219 0.121094 -1.230469 c 0.019531 -0.109375 0.042968 -0.214843 0.070312 -0.324219 c 0.074219 -0.3125 0.167969 -0.621093 0.28125 -0.925781 c 0.035156 -0.09375 0.070313 -0.191406 0.109375 -0.289062 c 0.160157 -0.375 0.351563 -0.734375 0.574219 -1.078125 c 0.039062 -0.054688 0.082031 -0.109375 0.125 -0.167969 c 0.199219 -0.28125 0.421875 -0.550781 0.664062 -0.804687 c 0.074219 -0.078126 0.15625 -0.160157 0.238282 -0.238282 c 0.25 -0.238281 0.519531 -0.460937 0.804687 -0.660156 c 0.054688 -0.042969 0.109375 -0.085938 0.167969 -0.125 c 0.339844 -0.222656 0.699219 -0.414062 1.078125 -0.578125 c 0.09375 -0.035156 0.191406 -0.070313 0.289063 -0.105469 c 0.300781 -0.113281 0.609374 -0.207031 0.925781 -0.28125 c 0.105469 -0.027344 0.210937 -0.050781 0.320312 -0.070312 c 0.40625 -0.078125 0.816407 -0.117188 1.230469 -0.121094 z m 0 0" fill="#d8dae5"/>
    <path d="m 11 14 h 28 c 4.417969 0 8 3.582031 8 8 v 64 c 0 4.417969 -3.582031 8 -8 8 h -28 c -4.417969 0 -8 -3.582031 -8 -8 v -64 c 0 -4.417969 3.582031 -8 8 -8 z m 0 0" fill="#ff7800"/>
    <path d="m 15 98 h 20 c 2.761719 0 5 2.6875 5 6 v 10 c 0 3.3125 -2.238281 6 -5 6 h -20 c -2.761719 0 -5 -2.6875 -5 -6 v -10 c 0 -3.3125 2.238281 -6 5 -6 z m 0 0" fill="url(#d)"/>
    <path d="m 14.5 111 h 21 c 2.484375 0 4.5 2.015625 4.5 4.5 s -2.015625 4.5 -4.5 4.5 h -21 c -2.484375 0 -4.5 -2.015625 -4.5 -4.5 s 2.015625 -4.5 4.5 -4.5 z m 0 0" fill="url(#e)"/>
    <path d="m 14.5 112 h 21 c 1.933594 0 3.5 1.566406 3.5 3.5 s -1.566406 3.5 -3.5 3.5 h -21 c -1.933594 0 -3.5 -1.566406 -3.5 -3.5 s 1.566406 -3.5 3.5 -3.5 z m 0 0" fill="url(#f)"/>
    <path d="m 25.992188 38 h -2 l -4 8 h 3 v 10 h -6 v -2.539062 c 1.234374 -0.71875 2 -2.03125 2 -3.460938 c 0 -2.210938 -1.789063 -4 -4 -4 c -2.210938 0 -4 1.789062 -4 4 c 0 1.429688 0.765624 2.75 2 3.460938 v 2.539062 c 0 4 4 4 4 4 h 6 v 2.539062 c -1.234376 0.71875 -2 2.03125 -2 3.460938 c 0 2.210938 1.789062 4 4 4 c 2.210937 0 4 -1.789062 4 -4 c 0 -1.429688 -0.765626 -2.75 -2 -3.460938 v -2.539062 h 6 s 4 0 4 -4 v -2 s 2.25 -0.375 2 -2 v -4 c 0.25 -2.25 -2 -2 -2 -2 h -4 c -2.125 0 -2 2 -2 2 v 4 c 0 2 2 2 2 2 v 2 h -6 v -10 h 3 z m 0 0" fill="#dd4e00"/>
    <path d="m 3 86 v 2 c 0 4.433594 3.566406 8 8 8 h 28 c 4.433594 0 8 -3.566406 8 -8 v -2 c 0 4.433594 -3.566406 8 -8 8 h -28 c -4.433594 0 -8 -3.566406 -8 -8 z m 0 0" fill="url(#g)"/>
    <path d="m 15 98 c -2.769531 0 -5 2.675781 -5 6 v 2 c 0 -3.324219 2.230469 -6 5 -6 h 20 c 2.769531 0 5 2.675781 5 6 v -2 c 0 -3.324219 -2.230469 -6 -5 -6 z m 0 0" fill-opacity="0.078431"/>
</svg>
