<?xml version="1.0" encoding="UTF-8"?><svg id="Layer_3" xmlns="http://www.w3.org/2000/svg" xmlns:xlink="http://www.w3.org/1999/xlink" viewBox="0 0 128 128"><defs><style>.cls-1{clip-path:url(#clippath-20);}.cls-2{clip-path:url(#clippath-11);}.cls-3{clip-path:url(#clippath-16);}.cls-4{fill:#432051;}.cls-5{fill:#68346e;}.cls-6{clip-path:url(#clippath-2);}.cls-7{clip-path:url(#clippath-13);}.cls-8{isolation:isolate;}.cls-9{fill:#4b235a;}.cls-10{clip-path:url(#clippath-15);}.cls-11{fill:#6f3876;}.cls-12{clip-path:url(#clippath-6);}.cls-13{clip-path:url(#clippath-7);}.cls-14{fill:#381f4c;}.cls-15{clip-path:url(#clippath-1);}.cls-16{clip-path:url(#clippath-4);}.cls-17{fill:#321b44;}.cls-18{fill:#482257;}.cls-19{clip-path:url(#clippath-12);}.cls-20{fill:#633269;}.cls-21{fill:#573075;}.cls-22{fill:#ac57b6;}.cls-23{clip-path:url(#clippath-9);}.cls-24{clip-path:url(#clippath);}.cls-25{fill:#341d47;}.cls-26{fill:none;}.cls-27{fill:#361e49;}.cls-28{clip-path:url(#clippath-19);}.cls-29{fill:#321c44;}.cls-30{clip-path:url(#clippath-3);}.cls-31{fill:#64326a;}.cls-32{clip-path:url(#clippath-8);}.cls-33{clip-path:url(#clippath-18);}.cls-34{clip-path:url(#clippath-14);}.cls-35{clip-path:url(#clippath-17);}.cls-36{clip-path:url(#clippath-5);}.cls-37{fill:#6c3672;}.cls-38{fill:#462154;}.cls-39{clip-path:url(#clippath-10);}.cls-40{fill:#74378c;}.cls-41{fill:#311b42;}</style><clipPath id="clippath"><path class="cls-26" d="M78.4,41.55c-4.42,0-8,3.53-8,7.88v-4.34c0-4.35,3.58-7.88,8-7.88,3.85,0,7.07,2.68,7.83,6.25,0,.08,0,.18,0,.26v4.08c-.76-3.57-3.98-6.25-7.83-6.25Z"/></clipPath><clipPath id="clippath-1"><path class="cls-26" d="M86.23,47.8c-.02-.17,0-.34,0-.51v-3.83c.11,.53,.17,1.07,.17,1.63v4.34c0-.56-.06-1.1-.17-1.63Z"/></clipPath><clipPath id="clippath-2"><path class="cls-26" d="M32.87,42.87v4.34c-2.39,2.2-5.36,3.69-8.47,4.18v-4.34c3.11-.5,6.07-1.99,8.47-4.18Z"/></clipPath><clipPath id="clippath-3"><path class="cls-26" d="M24.4,47.05v4.34c-.39,.06-.79,.11-1.18,.14-.29,.02-.59,.04-.88,.04-.1,0-.19,0-.29,0-.34,0-.67-.01-1-.03-1-.07-1.98-.23-2.94-.47-.27-.07-.53-.14-.79-.22-.61-.18-1.21-.4-1.79-.64-.38-.16-.76-.33-1.13-.51v-4.34c.37,.18,.75,.35,1.13,.51,.59,.24,1.18,.46,1.79,.64,.26,.08,.52,.15,.79,.22,.96,.24,1.94,.4,2.94,.47,.33,.02,.67,.03,1,.03,.1,0,.19,0,.29,0,.29,0,.58-.02,.88-.04,.39-.03,.78-.08,1.18-.14Z"/></clipPath><clipPath id="clippath-4"><path class="cls-26" d="M60.4,34.25v4.34c0,4.93-2.65,7.63-6.97,10.54-.24,.16-.48,.31-.72,.46-.14,.08-.28,.16-.42,.24-2.58,1.45-5.46,2.19-8.27,2.22-.05,0-.1,0-.15,0-.14,0-.29,0-.43,0-2.06-.05-4.07-.5-5.89-1.33-.09-.04-.19-.09-.28-.13-1.72-.83-3.19-1.99-4.39-3.38v-4.34c1.21,1.38,2.67,2.54,4.39,3.38,.09,.04,.18,.09,.28,.13,1.82,.83,3.83,1.27,5.89,1.33,.14,0,.29,0,.43,0,.05,0,.1,0,.15,0,2.81-.03,5.7-.77,8.27-2.22,.14-.08,.28-.16,.42-.24,.24-.15,.49-.3,.72-.46,4.33-2.91,6.97-5.61,6.97-10.54Z"/></clipPath><clipPath id="clippath-5"><path class="cls-26" d="M86.4,45.09v4.34c0,4.35-3.58,7.88-8,7.88s-8-3.53-8-7.88v-4.34c0,4.35,3.58,7.88,8,7.88s8-3.53,8-7.88Z"/></clipPath><clipPath id="clippath-6"><path class="cls-26" d="M113.6,61.83v4.34c0,1.53-.63,3.07-1.88,4.19v-4.34c1.25-1.13,1.88-2.66,1.88-4.19Z"/></clipPath><clipPath id="clippath-7"><path class="cls-26" d="M72.82,71.03s0,0,0-.01h0v-.03h0v-.03h0v-.03h0v-3.76c0-.15,0-.35,0-.5,0,0,0,0,0,0h0c0,.15,0,.35,0,.51v3.83s0,0,0,0c0,0,0,0,0,0Z"/></clipPath><clipPath id="clippath-8"><path class="cls-26" d="M72.4,71.1s0,0,0,0c0-.15,0-.35,0-.51v-3.83s0,0,0,0c0,.15,0,.35,0,.5v3.75h0v.02h0v.03h0v.03h0s0,.02,0,.02Z"/></clipPath><clipPath id="clippath-9"><path class="cls-26" d="M77.49,70.66c-1.6,0-3.12,.12-4.66,.37,0-.15,0-.35,0-.51v-3.83c1.54-.24,3.05-.36,4.65-.37,0,1.44,0,2.89,0,4.33,0-1.44,0-2.89,0-4.33,0,0,0,0,.01,0,0,1.3,0,3.04,0,4.34Z"/></clipPath><clipPath id="clippath-10"><path class="cls-26" d="M72.4,71.1s0,0,0-.01h0v-.02h0v-.03h0v-.02h0v-4.25c.14-.02,.28-.05,.42-.07,0,1.45,0,2.89,0,4.34-.14,.02-.28,.05-.42,.07Z"/></clipPath><clipPath id="clippath-11"><path class="cls-26" d="M72.4,71.1c-4.35,.75-8.45,2.45-12.08,4.72,0-1.28,0-2.56,0-3.83v-.51c3.63-2.28,7.73-3.97,12.08-4.72,0,.15,0,.35,0,.51v3.33c0,.15,0,.35,0,.51Z"/></clipPath><clipPath id="clippath-12"><path class="cls-26" d="M77.91,70.66c-.14,0-.28,0-.42,0v-4.34c.14,0,.28,0,.42,0,8.17,.12,15.6,3.61,21.48,8.42,0,.14,0,.32,0,.45v3.89c-5.89-4.82-13.31-8.31-21.48-8.42Z"/></clipPath><clipPath id="clippath-13"><path class="cls-26" d="M99.39,79.08s0-.04,0-.06v-4.28c.17,.14,.34,.28,.5,.42,.18,.16,.37,.31,.55,.47,.1,.09,.19,.17,.29,.26v4.34c-.1-.09-.19-.17-.29-.26-.18-.16-.36-.32-.55-.47-.17-.14-.33-.28-.5-.42Z"/></clipPath><clipPath id="clippath-14"><path class="cls-26" d="M29.4,70.11s0,0,0,0c0-.15,0-.35,0-.51v-3.83s0,0,0,0c0,1.45,0,2.89,0,4.34Z"/></clipPath><clipPath id="clippath-15"><path class="cls-26" d="M14.4,74.47c0-1.45,0-2.89,0-4.34,5.21-2.28,11.26-3.74,14.99-4.36,0,.15,0,.35,0,.51v3.83c-3.73,.62-9.78,2.08-14.99,4.36Z"/></clipPath><clipPath id="clippath-16"><path class="cls-26" d="M36.96,69.51c-2.7,0-5.1,.2-7.56,.61,0-1.45,0-2.89,0-4.34,2.46-.41,4.86-.6,7.56-.61h0s0,.02,0,.02c0,0,0,0,0,0,0,1.44,0,2.88,0,4.32v-4.34c8.29,.04,15.86,2.39,22.53,5.87,.17,.09,.33,.17,.5,.26,0,.15,0,.35,0,.5v3.81h0v.02h0c-.17-.08-.33-.17-.5-.25-6.67-3.49-14.24-5.84-22.53-5.87Z"/></clipPath><clipPath id="clippath-17"><path class="cls-26" d="M59.99,75.64s0,0,0,0h0v-.02h0v-4.32s0,0,0,0c.11,.06,.22,.12,.33,.18v4.34c-.11-.06-.22-.12-.33-.18,0,0,0,0,0,0Z"/></clipPath><clipPath id="clippath-18"><path class="cls-26" d="M21.5,89.4v4.34c-3.92,0-7.1-3.14-7.1-6.99v-4.34c0,3.86,3.19,6.99,7.1,6.99Z"/></clipPath><clipPath id="clippath-19"><path class="cls-26" d="M83.65,91.21v4.34c-5.28-6.29-13.25-14.27-23.33-19.73v-4.34c10.08,5.46,18.05,13.44,23.33,19.73Z"/></clipPath><clipPath id="clippath-20"><path class="cls-26" d="M70.03,103.41v4.34c-1.14,1.03-2.51,1.49-3.84,1.49-2.97,0-5.79-2.28-5.79-5.68v-4.34c0,3.4,2.83,5.68,5.79,5.68,1.33,0,2.69-.46,3.84-1.49Z"/></clipPath></defs><g class="cls-8"><g class="cls-8"><g class="cls-24"><g class="cls-8"><path class="cls-31" d="M86.4,45.09v4.34c0-4.35-3.58-7.88-8-7.88-2.56,0-4.84,1.19-6.31,3.03v-4.34c1.46-1.84,3.74-3.03,6.31-3.03,4.42,0,8,3.53,8,7.88"/><path class="cls-5" d="M72.09,40.24v4.34c-.38,.48-.71,1.01-.97,1.57v-4.34c.26-.56,.59-1.09,.97-1.57"/><path class="cls-37" d="M71.12,41.8v4.34c-.24,.51-.42,1.05-.54,1.61v-4.34c.12-.56,.31-1.1,.54-1.61"/><path class="cls-11" d="M70.58,43.41v4.34c-.12,.54-.18,1.1-.18,1.68v-4.34c0-.57,.06-1.14,.18-1.68"/></g></g></g><g class="cls-8"><g class="cls-15"><g class="cls-8"><path class="cls-31" d="M86.4,45.09v4.34c0-4.35-3.58-7.88-8-7.88-2.56,0-4.84,1.19-6.31,3.03v-4.34c1.46-1.84,3.74-3.03,6.31-3.03,4.42,0,8,3.53,8,7.88"/></g></g></g><g class="cls-8"><g class="cls-6"><g class="cls-8"><path class="cls-4" d="M32.87,42.87v4.34c-2.39,2.2-5.36,3.69-8.47,4.18v-4.34c3.11-.5,6.07-1.99,8.47-4.18"/></g></g></g><g class="cls-8"><g class="cls-30"><g class="cls-8"><path class="cls-4" d="M24.4,47.05v4.34c-.39,.06-.79,.11-1.18,.14-.29,.02-.59,.04-.88,.04-.1,0-.19,0-.29,0-.34,0-.67-.01-1-.03-1-.07-1.98-.23-2.94-.47-.27-.07-.53-.14-.79-.22-.61-.18-1.21-.4-1.79-.64-.38-.16-.76-.33-1.13-.51v-4.34c.37,.18,.75,.35,1.13,.51,.59,.24,1.18,.46,1.79,.64,.26,.08,.52,.15,.79,.22,.96,.24,1.94,.4,2.94,.47,.33,.02,.67,.03,1,.03,.1,0,.19,0,.29,0,.29,0,.58-.02,.88-.04,.39-.03,.78-.08,1.18-.14"/></g></g></g><g class="cls-8"><g class="cls-16"><g class="cls-8"><path class="cls-9" d="M60.4,34.25v4.34c0,.89-.09,1.71-.25,2.46v-4.34c.17-.76,.25-1.58,.25-2.46"/><path class="cls-18" d="M60.15,36.72v4.34c-.15,.7-.37,1.34-.66,1.95v-4.34c.28-.61,.5-1.25,.66-1.95"/><path class="cls-38" d="M59.49,38.67v4.34c-.33,.71-.75,1.36-1.24,1.99v-4.34c.49-.62,.91-1.28,1.24-1.99"/><path class="cls-4" d="M58.25,40.66v4.34c-1.19,1.5-2.83,2.79-4.83,4.14-.24,.16-.48,.31-.72,.46-.14,.08-.28,.16-.42,.24-2.58,1.45-5.46,2.19-8.27,2.22-.05,0-.1,0-.15,0-.14,0-.29,0-.43,0-2.06-.05-4.07-.5-5.89-1.33-.09-.04-.19-.09-.28-.13-1.72-.83-3.19-1.99-4.39-3.38v-4.34c1.21,1.38,2.67,2.54,4.39,3.38,.09,.04,.18,.09,.28,.13,1.82,.83,3.83,1.27,5.89,1.33,.14,0,.29,0,.43,0,.05,0,.1,0,.15,0,2.81-.03,5.7-.77,8.27-2.22,.14-.08,.28-.16,.42-.24,.24-.15,.49-.3,.72-.46,2-1.34,3.64-2.64,4.83-4.14"/></g></g></g><path class="cls-40" d="M60.4,34.25c0,4.93-2.65,7.63-6.97,10.54-.24,.16-.48,.31-.72,.46-.14,.08-.28,.16-.42,.24-2.58,1.45-5.46,2.19-8.27,2.22-.05,0-.1,0-.15,0-.14,0-.29,0-.43,0-2.06-.05-4.07-.5-5.89-1.33-.09-.04-.19-.09-.28-.13-1.72-.83-3.19-1.99-4.39-3.38-2.39,2.2-5.36,3.69-8.47,4.18-.39,.06-.79,.11-1.18,.14-.29,.02-.59,.04-.88,.04-.1,0-.19,0-.29,0-.34,0-.67-.01-1-.03-1-.07-1.98-.23-2.94-.47-.27-.07-.53-.14-.79-.22-.61-.18-1.21-.4-1.79-.64-.38-.16-.76-.33-1.13-.51v-4.11c0-3.86,3.19-6.99,7.1-6.99H60.4Z"/><g class="cls-8"><g class="cls-36"><g class="cls-8"><path class="cls-14" d="M86.4,45.09v4.34c0,.57-.06,1.14-.18,1.68v-4.34c.12-.54,.18-1.1,.18-1.68"/><path class="cls-27" d="M86.22,46.76v4.34c-.12,.56-.31,1.1-.54,1.61v-4.34c.24-.51,.42-1.05,.54-1.61"/><path class="cls-25" d="M85.67,48.37v4.34c-.26,.56-.59,1.09-.97,1.57v-4.34c.38-.48,.71-1.01,.97-1.57"/><path class="cls-29" d="M84.71,49.94v4.34c-1.46,1.84-3.74,3.03-6.31,3.03-4.42,0-8-3.53-8-7.88v-4.34c0,4.35,3.58,7.88,8,7.88,2.56,0,4.84-1.19,6.31-3.03"/></g></g></g><g class="cls-8"><g class="cls-12"><g class="cls-8"><path class="cls-11" d="M113.6,61.83v4.34c0,.41-.04,.81-.13,1.21v-4.34c.09-.4,.13-.8,.13-1.21"/><path class="cls-37" d="M113.47,63.04v4.34c-.09,.4-.22,.79-.39,1.16v-4.34c.18-.38,.31-.77,.39-1.16"/><path class="cls-5" d="M113.08,64.2v4.34c-.18,.39-.41,.77-.69,1.12v-4.34c.28-.35,.51-.72,.69-1.12"/><path class="cls-31" d="M112.39,65.32v4.34c-.2,.25-.42,.48-.66,.7v-4.34c.24-.22,.47-.46,.66-.7"/></g></g></g><g class="cls-8"><g class="cls-13"><g class="cls-8"><path class="cls-31" d="M77.49,66.31v4.34c-1.6,0-3.12,.12-4.66,.37-.14,.02-.29,.05-.43,.07-4.35,.75-8.45,2.45-12.08,4.72v-4.34c3.63-2.28,7.73-3.97,12.08-4.72,.14-.03,.29-.05,.43-.07,1.54-.25,3.06-.36,4.66-.37"/></g></g></g><g class="cls-8"><g class="cls-32"><g class="cls-8"><path class="cls-31" d="M77.49,66.31v4.34c-1.6,0-3.12,.12-4.66,.37-.14,.02-.29,.05-.43,.07-4.35,.75-8.45,2.45-12.08,4.72v-4.34c3.63-2.28,7.73-3.97,12.08-4.72,.14-.03,.29-.05,.43-.07,1.54-.25,3.06-.36,4.66-.37"/></g></g></g><g class="cls-8"><g class="cls-23"><g class="cls-8"><path class="cls-31" d="M77.49,66.31v4.34c-1.6,0-3.12,.12-4.66,.37-.14,.02-.29,.05-.43,.07-4.35,.75-8.45,2.45-12.08,4.72v-4.34c3.63-2.28,7.73-3.97,12.08-4.72,.14-.03,.29-.05,.43-.07,1.54-.25,3.06-.36,4.66-.37"/></g></g></g><g class="cls-8"><g class="cls-39"><g class="cls-8"><path class="cls-31" d="M77.49,66.31v4.34c-1.6,0-3.12,.12-4.66,.37-.14,.02-.29,.05-.43,.07-4.35,.75-8.45,2.45-12.08,4.72v-4.34c3.63-2.28,7.73-3.97,12.08-4.72,.14-.03,.29-.05,.43-.07,1.54-.25,3.06-.36,4.66-.37"/></g></g></g><g class="cls-8"><g class="cls-2"><g class="cls-8"><path class="cls-31" d="M77.49,66.31v4.34c-1.6,0-3.12,.12-4.66,.37-.14,.02-.29,.05-.43,.07-4.35,.75-8.45,2.45-12.08,4.72v-4.34c3.63-2.28,7.73-3.97,12.08-4.72,.14-.03,.29-.05,.43-.07,1.54-.25,3.06-.36,4.66-.37"/></g></g></g><g class="cls-8"><g class="cls-19"><g class="cls-8"><path class="cls-31" d="M100.74,75.89v4.34c-.1-.09-.19-.17-.29-.26-.18-.16-.36-.32-.55-.47-5.96-5.03-13.58-8.72-21.99-8.84-.14,0-.28,0-.42,0v-4.34c.14,0,.28,0,.42,0,8.41,.12,16.02,3.81,21.99,8.84,.18,.16,.37,.31,.55,.47,.1,.09,.19,.17,.29,.26"/></g></g></g><g class="cls-8"><g class="cls-7"><g class="cls-8"><path class="cls-31" d="M100.74,75.89v4.34c-.1-.09-.19-.17-.29-.26-.18-.16-.36-.32-.55-.47-5.96-5.03-13.58-8.72-21.99-8.84-.14,0-.28,0-.42,0v-4.34c.14,0,.28,0,.42,0,8.41,.12,16.02,3.81,21.99,8.84,.18,.16,.37,.31,.55,.47,.1,.09,.19,.17,.29,.26"/></g></g></g><path class="cls-40" d="M77.39,66.32c.24,0,.38,0,.52,0,8.41,.12,16.02,3.81,21.99,8.84,.18,.16,.37,.31,.55,.47,.1,.09,.19,.17,.29,.26l-17.09,15.32c-5.28-6.29-13.25-14.27-23.33-19.73,3.63-2.28,7.73-3.97,12.08-4.72,.14-.03,.29-.05,.43-.07,1.54-.24,3.06-.36,4.56-.37Z"/><path class="cls-22" d="M111.73,57.64c2.5,2.25,2.5,6.13,0,8.38l-10.99,9.86c-.1-.09-.19-.17-.29-.26-.18-.16-.36-.32-.55-.47-5.96-5.03-13.58-8.72-21.99-8.84-.14,0-.28,0-.42,0-1.6,0-3.12,.12-4.66,.37-.14,.02-.29,.05-.43,.07-4.35,.75-8.45,2.45-12.08,4.72-.11-.06-.22-.12-.33-.18-.17-.09-.33-.18-.5-.26-6.67-3.49-14.24-5.84-22.53-5.87-2.7,0-5.1,.2-7.56,.61-3.73,.62-9.78,2.08-14.99,4.36v-24.77c.37,.18,.75,.35,1.13,.51,.59,.24,1.18,.46,1.79,.64,.26,.08,.52,.15,.79,.22,.96,.24,1.94,.4,2.94,.47,.33,.02,.67,.03,1,.03,.1,0,.19,0,.29,0,.29,0,.58-.02,.88-.04,.39-.03,.78-.08,1.18-.14,3.11-.5,6.07-1.99,8.47-4.18,1.21,1.38,2.67,2.54,4.39,3.38,.09,.04,.18,.09,.28,.13,1.82,.83,3.83,1.27,5.89,1.33,.14,0,.29,0,.43,0,2.97-.03,5.85-.77,8.42-2.22,.14-.08,.28-.16,.42-.24,.24-.15,.49-.3,.72-.46,4.33-2.91,6.98-5.61,6.98-10.54v-9.82c0-3.4,2.83-5.68,5.8-5.68,1.33,0,2.69,.46,3.83,1.48l41.7,37.39Zm-33.33-4.67c4.42,0,8-3.53,8-7.88s-3.58-7.88-8-7.88-8,3.53-8,7.88,3.58,7.88,8,7.88"/><ellipse class="cls-21" cx="78.4" cy="45.09" rx="8" ry="7.88"/><g class="cls-8"><g class="cls-34"><g class="cls-8"><path class="cls-31" d="M60.32,71.48v4.34c-.11-.06-.22-.12-.33-.18-.17-.09-.33-.18-.5-.26-6.67-3.49-14.24-5.84-22.53-5.87-2.7,0-5.1,.2-7.56,.61-3.73,.62-9.78,2.08-14.99,4.36v-4.34c5.21-2.28,11.26-3.74,14.99-4.36,2.46-.41,4.86-.6,7.56-.61,8.3,.04,15.86,2.39,22.53,5.87,.17,.09,.33,.18,.5,.26,.11,.06,.22,.12,.33,.18"/></g></g></g><g class="cls-8"><g class="cls-10"><g class="cls-8"><path class="cls-31" d="M60.32,71.48v4.34c-.11-.06-.22-.12-.33-.18-.17-.09-.33-.18-.5-.26-6.67-3.49-14.24-5.84-22.53-5.87-2.7,0-5.1,.2-7.56,.61-3.73,.62-9.78,2.08-14.99,4.36v-4.34c5.21-2.28,11.26-3.74,14.99-4.36,2.46-.41,4.86-.6,7.56-.61,8.3,.04,15.86,2.39,22.53,5.87,.17,.09,.33,.18,.5,.26,.11,.06,.22,.12,.33,.18"/></g></g></g><g class="cls-8"><g class="cls-3"><g class="cls-8"><path class="cls-31" d="M60.32,71.48v4.34c-.11-.06-.22-.12-.33-.18-.17-.09-.33-.18-.5-.26-6.67-3.49-14.24-5.84-22.53-5.87-2.7,0-5.1,.2-7.56,.61-3.73,.62-9.78,2.08-14.99,4.36v-4.34c5.21-2.28,11.26-3.74,14.99-4.36,2.46-.41,4.86-.6,7.56-.61,8.3,.04,15.86,2.39,22.53,5.87,.17,.09,.33,.18,.5,.26,.11,.06,.22,.12,.33,.18"/></g></g></g><g class="cls-8"><g class="cls-35"><g class="cls-8"><path class="cls-31" d="M60.32,71.48v4.34c-.11-.06-.22-.12-.33-.18-.17-.09-.33-.18-.5-.26-6.67-3.49-14.24-5.84-22.53-5.87-2.7,0-5.1,.2-7.56,.61-3.73,.62-9.78,2.08-14.99,4.36v-4.34c5.21-2.28,11.26-3.74,14.99-4.36,2.46-.41,4.86-.6,7.56-.61,8.3,.04,15.86,2.39,22.53,5.87,.17,.09,.33,.18,.5,.26,.11,.06,.22,.12,.33,.18"/></g></g></g><polygon class="cls-20" points="111.73 66.02 111.73 70.36 100.74 80.23 100.74 75.89 111.73 66.02"/><g class="cls-8"><g class="cls-33"><g class="cls-8"><path class="cls-29" d="M21.5,89.4v4.34c-3.92,0-7.1-3.14-7.1-6.99v-4.34c0,3.86,3.19,6.99,7.1,6.99"/></g></g></g><rect class="cls-41" x="21.5" y="89.4" width="38.9" height="4.34"/><g class="cls-8"><g class="cls-28"><g class="cls-8"><path class="cls-4" d="M83.65,91.21v4.34c-5.28-6.29-13.25-14.27-23.33-19.73v-4.34c10.08,5.46,18.05,13.44,23.33,19.73"/></g></g></g><polygon class="cls-4" points="100.74 75.89 100.74 80.23 83.65 95.55 83.65 91.21 100.74 75.89"/><polygon class="cls-17" points="83.65 91.21 83.65 95.55 70.03 107.76 70.03 103.41 83.65 91.21"/><path class="cls-21" d="M36.6,65.17c.22,0,.29,0,.35,0,8.3,.04,15.86,2.39,22.53,5.87,.17,.09,.33,.18,.5,.26,.11,.06,.22,.12,.33,.18,10.08,5.46,18.05,13.44,23.33,19.73l-13.62,12.2c-1.14,1.03-2.51,1.49-3.84,1.49-2.97,0-5.79-2.28-5.79-5.68v-9.82H21.5c-3.92,0-7.1-3.14-7.1-6.99v-12.28c5.21-2.28,11.26-3.74,14.99-4.36,2.46-.41,4.86-.6,7.21-.61Z"/><g class="cls-8"><g class="cls-1"><g class="cls-8"><path class="cls-29" d="M70.03,103.41v4.34c-1.14,1.03-2.51,1.49-3.84,1.49-2.97,0-5.79-2.28-5.79-5.68v-4.34c0,3.4,2.83,5.68,5.79,5.68,1.33,0,2.69-.46,3.84-1.49"/></g></g></g></g></svg>