<?xml version="1.0" encoding="UTF-8"?><svg id="Layer_1" xmlns="http://www.w3.org/2000/svg" xmlns:xlink="http://www.w3.org/1999/xlink" viewBox="0 0 128 128"><defs><style>.cls-1{clip-path:url(#clippath-11);}.cls-2{fill:#432051;}.cls-3{fill:#68346e;}.cls-4{clip-path:url(#clippath-2);}.cls-5{clip-path:url(#clippath-13);}.cls-6{isolation:isolate;}.cls-7{fill:#4b235a;}.cls-8{fill:#6f3876;}.cls-9{clip-path:url(#clippath-6);}.cls-10{clip-path:url(#clippath-7);}.cls-11{fill:#381f4c;}.cls-12{clip-path:url(#clippath-1);}.cls-13{clip-path:url(#clippath-4);}.cls-14{fill:#7d7836;}.cls-15{fill:#321b44;}.cls-16{fill:#482257;}.cls-17{clip-path:url(#clippath-12);}.cls-18{fill:#633269;}.cls-19{fill:#573075;}.cls-20{fill:#ac57b6;}.cls-21{clip-path:url(#clippath-9);}.cls-22{clip-path:url(#clippath);}.cls-23{fill:#341d47;}.cls-24{fill:none;}.cls-25{fill:#361e49;}.cls-26{fill:#321c44;}.cls-27{clip-path:url(#clippath-3);}.cls-28{fill:#dfd760;}.cls-29{fill:#64326a;}.cls-30{clip-path:url(#clippath-8);}.cls-31{fill:#817d38;}.cls-32{clip-path:url(#clippath-5);}.cls-33{fill:#6c3672;}.cls-34{fill:#462154;}.cls-35{clip-path:url(#clippath-10);}.cls-36{fill:#74378c;}.cls-37{fill:#311b42;}</style><clipPath id="clippath"><path class="cls-24" d="M78.4,41.55c-4.42,0-8,3.53-8,7.88v-4.34c0-4.35,3.58-7.88,8-7.88s7.74,3.28,7.99,7.41c0,1.45,0,2.89,0,4.34-.25-4.13-3.73-7.41-7.99-7.41Z"/></clipPath><clipPath id="clippath-1"><path class="cls-24" d="M86.39,48.96s0-.03,0-.04c0-1.44,0-2.87,0-4.31,0,.16,.01,.31,.01,.47v4.34c0-.16,0-.31-.01-.47Z"/></clipPath><clipPath id="clippath-2"><path class="cls-24" d="M60.4,34.25v4.34c0,4.93-2.64,7.63-6.97,10.54-2.72,1.82-5.86,2.8-8.96,2.91-.21,0-.41,.01-.62,.01-.04,0-.08,0-.12,0-.19,0-.39,0-.58-.01-.39-.02-.77-.05-1.16-.09v-4.34c.38,.04,.77,.07,1.16,.09,.19,0,.39,.01,.58,.01,.04,0,.08,0,.12,0,.21,0,.41,0,.62-.01,3.09-.11,6.24-1.09,8.96-2.91,4.33-2.91,6.97-5.61,6.97-10.54Z"/></clipPath><clipPath id="clippath-3"><path class="cls-24" d="M86.4,45.09v4.34c0,4.35-3.58,7.88-8,7.88s-8-3.53-8-7.88v-4.34c0,4.35,3.58,7.88,8,7.88s8-3.53,8-7.88Z"/></clipPath><clipPath id="clippath-4"><path class="cls-24" d="M113.6,61.83v4.34c0,1.53-.62,3.07-1.87,4.19v-4.34c1.25-1.13,1.87-2.66,1.87-4.19Z"/></clipPath><clipPath id="clippath-5"><path class="cls-24" d="M72.4,66.76c0,.13,0,.31,0,.44v3.39c0-1.28,0-2.56,0-3.83,0,0,0,0,0,0Z"/></clipPath><clipPath id="clippath-6"><path class="cls-24" d="M60.32,75.82c-5.52-2.99-11.65-5.22-18.32-6.01v-4.34c6.67,.79,12.8,3.02,18.32,6.01,0,1.3,0,3.04,0,4.34Z"/></clipPath><clipPath id="clippath-7"><path class="cls-24" d="M72.4,71.1c-4.35,.75-8.44,2.44-12.07,4.72,0-1.45,0-2.89,0-4.34,3.64-2.28,7.73-3.97,12.07-4.72,0,1.45,0,2.89,0,4.34v-4.34s0,0,0,0c1.72-.3,3.43-.44,5.1-.44,0,.15,0,.35,0,.51v-.51s0,0,0,0c0,0,0,0,0,0,0,1.44,0,2.89,0,4.33,0-1.44,0-2.89,0-4.33,4.48,0,8.74,1.02,12.66,2.73,0,.15,0,.35,0,.51v3.83c-3.92-1.71-8.18-2.73-12.66-2.73-1.68,0-3.38,.14-5.1,.44Z"/></clipPath><clipPath id="clippath-8"><path class="cls-24" d="M100.7,80.18c-3.08-2.72-6.63-5.1-10.53-6.8,0-.15,0-.36,0-.51v-3.83s0,0,.01,0c0,.15,0,.35,0,.51v-.51c3.89,1.7,7.44,4.07,10.52,6.79,0,.15,0,.35,0,.5v3.81h0v.02h0s0,0,0,0Z"/></clipPath><clipPath id="clippath-9"><path class="cls-24" d="M100.7,80.18s0,0,0,0h0v-.02h0v-4.32s.03,.03,.05,.04v4.34s-.03-.03-.05-.04Z"/></clipPath><clipPath id="clippath-10"><path class="cls-24" d="M17.32,88.05v4.34c-1.77-1.27-2.92-3.33-2.92-5.65v-4.34c0,2.31,1.15,4.38,2.92,5.65Z"/></clipPath><clipPath id="clippath-11"><path class="cls-24" d="M21.5,89.4v4.34c-1.57,0-3.01-.5-4.18-1.35v-4.34c1.17,.85,2.61,1.35,4.18,1.35Z"/></clipPath><clipPath id="clippath-12"><path class="cls-24" d="M83.65,91.21v4.34c-5.28-6.29-13.25-14.27-23.33-19.73v-4.34c10.08,5.46,18.05,13.44,23.33,19.73Z"/></clipPath><clipPath id="clippath-13"><path class="cls-24" d="M70.03,103.41v4.34c-1.14,1.03-2.51,1.49-3.84,1.49-2.97,0-5.79-2.28-5.79-5.68v-4.34c0,3.4,2.83,5.68,5.79,5.68,1.33,0,2.69-.46,3.84-1.49Z"/></clipPath></defs><g class="cls-6"><g class="cls-6"><g class="cls-22"><g class="cls-6"><path class="cls-29" d="M86.4,45.09v4.34c0-4.35-3.58-7.88-8-7.88-2.56,0-4.84,1.19-6.31,3.03v-4.34c1.46-1.84,3.74-3.03,6.31-3.03,4.42,0,8,3.53,8,7.88"/><path class="cls-3" d="M72.09,40.24v4.34c-.38,.48-.71,1.01-.97,1.57v-4.34c.26-.56,.59-1.09,.97-1.57"/><path class="cls-33" d="M71.12,41.8v4.34c-.24,.51-.42,1.05-.54,1.61v-4.34c.12-.56,.31-1.1,.54-1.61"/><path class="cls-8" d="M70.58,43.41v4.34c-.12,.54-.18,1.1-.18,1.68v-4.34c0-.57,.06-1.14,.18-1.68"/></g></g></g><g class="cls-6"><g class="cls-12"><g class="cls-6"><path class="cls-29" d="M86.4,45.09v4.34c0-4.35-3.58-7.88-8-7.88-2.56,0-4.84,1.19-6.31,3.03v-4.34c1.46-1.84,3.74-3.03,6.31-3.03,4.42,0,8,3.53,8,7.88"/></g></g></g><polygon class="cls-31" points="28 34.25 28 38.6 14.4 51.99 14.4 47.65 28 34.25"/><path class="cls-28" d="M28,34.25l-13.6,13.39v-6.4c0-3.86,3.19-6.99,7.1-6.99h6.5Z"/><g class="cls-6"><g class="cls-4"><g class="cls-6"><path class="cls-7" d="M60.4,34.25v4.34c0,.89-.09,1.71-.25,2.47v-4.34c.17-.76,.25-1.58,.25-2.47"/><path class="cls-16" d="M60.15,36.73v4.34c-.15,.7-.37,1.34-.66,1.95v-4.34c.28-.61,.5-1.26,.66-1.95"/><path class="cls-34" d="M59.49,38.68v4.34c-.33,.71-.74,1.36-1.24,1.99v-4.34c.49-.62,.91-1.28,1.24-1.99"/><path class="cls-2" d="M58.25,40.66v4.34c-1.18,1.49-2.82,2.79-4.82,4.13-2.72,1.82-5.86,2.8-8.96,2.91-.21,0-.41,.01-.62,.01-.04,0-.08,0-.12,0-.19,0-.39,0-.58-.01-.39-.02-.77-.05-1.16-.09v-4.34c.38,.04,.77,.07,1.16,.09,.19,0,.39,.01,.58,.01,.04,0,.08,0,.12,0,.21,0,.41,0,.62-.01,3.09-.11,6.24-1.09,8.96-2.91,2-1.34,3.63-2.64,4.82-4.13"/></g></g></g><path class="cls-36" d="M60.4,34.25c0,4.93-2.64,7.63-6.97,10.54-2.72,1.82-5.86,2.8-8.96,2.91-.21,0-.41,.01-.62,.01-.04,0-.08,0-.12,0-.19,0-.39,0-.58-.01-.39-.02-.77-.05-1.16-.09v-13.36h18.4Z"/><g class="cls-6"><g class="cls-27"><g class="cls-6"><path class="cls-11" d="M86.4,45.09v4.34c0,.57-.06,1.14-.18,1.68v-4.34c.12-.54,.18-1.1,.18-1.68"/><path class="cls-25" d="M86.22,46.76v4.34c-.12,.56-.31,1.1-.54,1.61v-4.34c.24-.51,.42-1.05,.54-1.61"/><path class="cls-23" d="M85.67,48.37v4.34c-.26,.56-.59,1.09-.97,1.57v-4.34c.38-.48,.71-1.01,.97-1.57"/><path class="cls-26" d="M84.71,49.94v4.34c-1.46,1.84-3.74,3.03-6.31,3.03-4.42,0-8-3.53-8-7.88v-4.34c0,4.35,3.58,7.88,8,7.88,2.56,0,4.84-1.19,6.31-3.03"/></g></g></g><g class="cls-6"><g class="cls-13"><g class="cls-6"><path class="cls-8" d="M113.6,61.83v4.34c0,.41-.04,.81-.13,1.21v-4.34c.09-.4,.13-.81,.13-1.21"/><path class="cls-33" d="M113.47,63.04v4.34c-.09,.4-.22,.79-.39,1.17v-4.34c.18-.38,.31-.77,.39-1.17"/><path class="cls-3" d="M113.08,64.21v4.34c-.18,.39-.41,.77-.69,1.12v-4.34c.28-.35,.51-.73,.69-1.12"/><path class="cls-29" d="M112.39,65.32v4.34c-.19,.25-.41,.48-.65,.7v-4.34c.24-.22,.46-.45,.65-.7"/></g></g></g><polygon class="cls-31" points="42 63.75 42 68.09 17.32 92.4 17.32 88.05 42 63.75"/><path class="cls-20" d="M111.73,57.64c2.49,2.25,2.49,6.13,0,8.38l-10.99,9.86c-6.18-5.48-14.27-9.57-23.25-9.57-1.68,0-3.38,.14-5.1,.44-4.35,.75-8.44,2.44-12.07,4.72-5.52-2.99-11.65-5.22-18.32-6.01v-17.86c.38,.04,.77,.07,1.16,.09,.19,0,.39,.01,.58,.01,.32,0,.53,0,.73-.01,3.09-.11,6.24-1.09,8.96-2.91,4.33-2.91,6.97-5.61,6.97-10.54v-9.82c0-3.4,2.83-5.68,5.8-5.68,1.33,0,2.69,.46,3.83,1.48l41.71,37.39Zm-33.34-4.67c4.42,0,8-3.53,8-7.88s-3.58-7.88-8-7.88-8,3.53-8,7.88,3.58,7.88,8,7.88"/><ellipse class="cls-19" cx="78.4" cy="45.09" rx="8" ry="7.88"/><g class="cls-6"><g class="cls-32"><g class="cls-6"><path class="cls-29" d="M100.75,75.89v4.34c-6.18-5.48-14.27-9.57-23.25-9.57-1.68,0-3.38,.14-5.1,.44-4.35,.75-8.44,2.44-12.07,4.72v-4.34c3.64-2.28,7.73-3.97,12.07-4.72,1.73-.3,3.43-.44,5.1-.44,8.97,0,17.06,4.09,23.25,9.57"/></g></g></g><polygon points="42 42.03 42 46.37 14.4 73.54 14.4 69.2 42 42.03"/><polygon points="42 34.25 42 42.03 14.4 69.2 14.4 47.65 28 34.25 42 34.25"/><g class="cls-6"><g class="cls-9"><g class="cls-6"><path class="cls-29" d="M60.32,71.48v4.34c-5.52-2.99-11.65-5.22-18.32-6.01v-4.34c6.67,.79,12.8,3.02,18.32,6.01"/></g></g></g><g class="cls-6"><g class="cls-10"><g class="cls-6"><path class="cls-29" d="M100.75,75.89v4.34c-6.18-5.48-14.27-9.57-23.25-9.57-1.68,0-3.38,.14-5.1,.44-4.35,.75-8.44,2.44-12.07,4.72v-4.34c3.64-2.28,7.73-3.97,12.07-4.72,1.73-.3,3.43-.44,5.1-.44,8.97,0,17.06,4.09,23.25,9.57"/></g></g></g><g class="cls-6"><g class="cls-30"><g class="cls-6"><path class="cls-29" d="M100.75,75.89v4.34c-6.18-5.48-14.27-9.57-23.25-9.57-1.68,0-3.38,.14-5.1,.44-4.35,.75-8.44,2.44-12.07,4.72v-4.34c3.64-2.28,7.73-3.97,12.07-4.72,1.73-.3,3.43-.44,5.1-.44,8.97,0,17.06,4.09,23.25,9.57"/></g></g></g><polygon class="cls-18" points="111.73 66.02 111.73 70.36 100.75 80.23 100.75 75.89 111.73 66.02"/><g class="cls-6"><g class="cls-21"><g class="cls-6"><path class="cls-29" d="M100.75,75.89v4.34c-6.18-5.48-14.27-9.57-23.25-9.57-1.68,0-3.38,.14-5.1,.44-4.35,.75-8.44,2.44-12.07,4.72v-4.34c3.64-2.28,7.73-3.97,12.07-4.72,1.73-.3,3.43-.44,5.1-.44,8.97,0,17.06,4.09,23.25,9.57"/></g></g></g><path class="cls-28" d="M42,42.03v21.72l-24.68,24.3c-1.77-1.27-2.92-3.33-2.92-5.65v-13.21l27.6-27.17Z"/><g class="cls-6"><g class="cls-35"><g class="cls-6"><path class="cls-31" d="M17.32,88.05v4.34c-1.77-1.27-2.92-3.33-2.92-5.65v-4.34c0,2.31,1.15,4.38,2.92,5.65"/></g></g></g><path d="M42,63.75v21.56l-4.16,4.09H21.5c-1.57,0-3.01-.5-4.18-1.35l24.68-24.3Z"/><rect class="cls-37" x="42" y="89.4" width="18.4" height="4.34"/><polygon points="42 85.31 42 89.65 37.84 93.74 37.84 89.4 42 85.31"/><rect x="21.5" y="89.4" width="16.34" height="4.34"/><polygon class="cls-28" points="42 85.31 42 89.4 37.84 89.4 42 85.31"/><g class="cls-6"><g class="cls-1"><g class="cls-6"><path d="M21.5,89.4v4.34c-1.57,0-3.01-.5-4.18-1.35v-4.34c1.17,.85,2.61,1.35,4.18,1.35"/></g></g></g><rect class="cls-14" x="37.84" y="89.4" width="4.16" height="4.34"/><g class="cls-6"><g class="cls-17"><g class="cls-6"><path class="cls-2" d="M83.65,91.21v4.34c-5.28-6.29-13.25-14.27-23.33-19.73v-4.34c10.08,5.46,18.05,13.44,23.33,19.73"/></g></g></g><polygon class="cls-2" points="100.74 75.89 100.74 80.23 83.65 95.55 83.65 91.21 100.74 75.89"/><path class="cls-36" d="M77.49,66.31c8.98,0,17.07,4.09,23.24,9.57l-17.09,15.32c-5.28-6.29-13.25-14.27-23.33-19.73,3.64-2.28,7.73-3.97,12.08-4.72,1.73-.3,3.43-.44,5.1-.44Z"/><polygon class="cls-15" points="83.65 91.21 83.65 95.55 70.03 107.76 70.03 103.41 83.65 91.21"/><g class="cls-6"><g class="cls-5"><g class="cls-6"><path class="cls-26" d="M70.03,103.41v4.34c-1.14,1.03-2.51,1.49-3.84,1.49-2.97,0-5.79-2.28-5.79-5.68v-4.34c0,3.4,2.83,5.68,5.79,5.68,1.33,0,2.69-.46,3.84-1.49"/></g></g></g><path class="cls-19" d="M42,65.47c6.67,.79,12.8,3.02,18.32,6.01,10.08,5.46,18.05,13.44,23.32,19.73l-13.62,12.2c-1.14,1.03-2.51,1.49-3.84,1.49-2.97,0-5.79-2.28-5.79-5.68v-9.82h-18.4v-23.93Z"/></g></svg>