<?xml version="1.0" encoding="UTF-8"?>
<svg height="128px" viewBox="0 0 128 128" width="128px" xmlns="http://www.w3.org/2000/svg" xmlns:xlink="http://www.w3.org/1999/xlink">
    <defs>
        <linearGradient id="a" gradientTransform="matrix(0.943869 0 0 2.926441 -471.067583 -1692.343281)" gradientUnits="userSpaceOnUse" x1="95.556961" x2="30.610176" y1="288.832336" y2="288.832336">
            <stop offset="0" stop-color="#2b8080"/>
            <stop offset="0.0335631" stop-color="#c2eded"/>
            <stop offset="0.0854104" stop-color="#76b7b4"/>
            <stop offset="0.227649" stop-color="#2a817c"/>
            <stop offset="0.890786" stop-color="#38aabf"/>
            <stop offset="0.945393" stop-color="#b7d9fc"/>
            <stop offset="1" stop-color="#309186"/>
        </linearGradient>
        <clipPath id="b">
            <path d="m 20.496094 32 h 102.914062 v 58 h -102.914062 z m 0 0"/>
        </clipPath>
        <linearGradient id="c" gradientTransform="matrix(0 -56.948432 102.886311 0 20.52219 89.472421)" gradientUnits="userSpaceOnUse" x1="-0.040162" x2="-0.040162" y1="0.994357" y2="0.005406">
            <stop offset="0" stop-color="#2b8f89"/>
            <stop offset="0.0186402" stop-color="#97dbba" stop-opacity="0.74902"/>
            <stop offset="0.0547227" stop-color="#2e9a8d"/>
            <stop offset="0.206769" stop-color="#2e9a8d"/>
            <stop offset="0.908214" stop-color="#175bad"/>
            <stop offset="0.97459" stop-color="#64a0e8"/>
            <stop offset="1" stop-color="#12498c"/>
        </linearGradient>
        <clipPath id="d">
            <path d="m 47 58 h 76.410156 v 28 h -76.410156 z m 0 0"/>
        </clipPath>
        <clipPath id="e">
            <path d="m 20.5 75.929688 c -0.097656 2.589843 1.496094 5.09375 4.417969 6.945312 c 2.925781 1.855469 6.933593 2.898438 11.121093 2.898438 h 16.492188 c 6.46875 0 12.9375 -0.003907 19.40625 0 h 0.070312 h 15.949219 c 6.625 0 13.253907 -0.003907 19.878907 0 c 1.574218 0.019531 3.121093 -0.136719 4.589843 -0.429688 c 0.015625 0 0.027344 -0.003906 0.042969 -0.007812 c 0.40625 -0.082032 0.8125 -0.167969 1.214844 -0.273438 c 0.347656 -0.089844 0.6875 -0.1875 1.027344 -0.292969 c 0.035156 -0.007812 0.070312 -0.023437 0.109374 -0.03125 c 0.160157 -0.046875 0.3125 -0.09375 0.472657 -0.144531 c 0.90625 -0.304688 1.765625 -0.667969 2.5625 -1.082031 c 1.273437 -0.667969 2.359375 -1.457031 3.230469 -2.339844 c 0.230468 -0.230469 0.449218 -0.472656 0.652343 -0.714844 c 0.867188 -1.042969 1.410157 -2.1875 1.558594 -3.378906 c 0.003906 -0.035156 0.015625 -0.074219 0.019531 -0.113281 c 0.019532 -0.148438 0.03125 -0.292969 0.039063 -0.441406 c 0.019531 -0.214844 0.03125 -0.425782 0.023437 -0.640626 c -0.003906 -0.015624 -0.003906 -0.03125 -0.007812 -0.046874 c -0.015625 -0.269532 -0.046875 -0.539063 -0.105469 -0.808594 c -0.246094 -1.296875 -0.914063 -2.546875 -1.964844 -3.679688 l -0.148437 -0.160156 c -0.304688 -0.351562 -0.628906 -0.703125 -0.972656 -1.042969 l -16.828126 -18.03125 l -17.953124 -19.234375 c -2.941407 -3.152344 -8.503907 -5.003906 -14.378907 -4.792968 c -1.972656 0.058593 -3.929687 0.347656 -5.738281 0.902343 c -1.496094 0.402344 -2.792969 0.984375 -3.945312 1.664063 c -0.046876 0.03125 -0.097657 0.0625 -0.148438 0.089844 c -0.253906 0.15625 -0.503906 0.3125 -0.742188 0.480468 c -0.195312 0.136719 -0.386718 0.273438 -0.570312 0.414063 c -0.136719 0.105469 -0.269531 0.210937 -0.402344 0.316406 c -0.109375 0.089844 -0.21875 0.183594 -0.324218 0.277344 c -0.6875 0.585937 -1.304688 1.210937 -1.847657 1.847656 c -0.03125 0.050781 -0.058593 0.101563 -0.089843 0.148437 l -34.632813 37.121094 c -1.300781 1.394532 -2.015625 2.972656 -2.078125 4.582032 z m 0 0"/>
        </clipPath>
        <clipPath id="f">
            <path d="m 20.496094 31 h 102.914062 v 55 h -102.914062 z m 0 0"/>
        </clipPath>
        <clipPath id="g">
            <path d="m 20.5 75.929688 c -0.097656 2.589843 1.496094 5.09375 4.417969 6.945312 c 2.925781 1.855469 6.933593 2.898438 11.121093 2.898438 h 16.492188 c 6.46875 0 12.9375 -0.003907 19.40625 0 h 0.070312 h 15.949219 c 6.625 0 13.253907 -0.003907 19.878907 0 c 1.574218 0.019531 3.121093 -0.136719 4.589843 -0.429688 c 0.015625 0 0.027344 -0.003906 0.042969 -0.007812 c 0.40625 -0.082032 0.8125 -0.167969 1.214844 -0.273438 c 0.347656 -0.089844 0.6875 -0.1875 1.027344 -0.292969 c 0.035156 -0.007812 0.070312 -0.023437 0.109374 -0.03125 c 0.160157 -0.046875 0.3125 -0.09375 0.472657 -0.144531 c 0.90625 -0.304688 1.765625 -0.667969 2.5625 -1.082031 c 1.273437 -0.667969 2.359375 -1.457031 3.230469 -2.339844 c 0.230468 -0.230469 0.449218 -0.472656 0.652343 -0.714844 c 0.867188 -1.042969 1.410157 -2.1875 1.558594 -3.378906 c 0.003906 -0.035156 0.015625 -0.074219 0.019531 -0.113281 c 0.019532 -0.148438 0.03125 -0.292969 0.039063 -0.441406 c 0.019531 -0.214844 0.03125 -0.425782 0.023437 -0.640626 c -0.003906 -0.015624 -0.003906 -0.03125 -0.007812 -0.046874 c -0.015625 -0.269532 -0.046875 -0.539063 -0.105469 -0.808594 c -0.246094 -1.296875 -0.914063 -2.546875 -1.964844 -3.679688 l -0.148437 -0.160156 c -0.304688 -0.351562 -0.628906 -0.703125 -0.972656 -1.042969 l -16.828126 -18.03125 l -17.953124 -19.234375 c -2.941407 -3.152344 -8.503907 -5.003906 -14.378907 -4.792968 c -1.972656 0.058593 -3.929687 0.347656 -5.738281 0.902343 c -1.496094 0.402344 -2.792969 0.984375 -3.945312 1.664063 c -0.046876 0.03125 -0.097657 0.0625 -0.148438 0.089844 c -0.253906 0.15625 -0.503906 0.3125 -0.742188 0.480468 c -0.195312 0.136719 -0.386718 0.273438 -0.570312 0.414063 c -0.136719 0.105469 -0.269531 0.210937 -0.402344 0.316406 c -0.109375 0.089844 -0.21875 0.183594 -0.324218 0.277344 c -0.6875 0.585937 -1.304688 1.210937 -1.847657 1.847656 c -0.03125 0.050781 -0.058593 0.101563 -0.089843 0.148437 l -34.632813 37.121094 c -1.300781 1.394532 -2.015625 2.972656 -2.078125 4.582032 z m 0 0"/>
        </clipPath>
        <linearGradient id="h" gradientTransform="matrix(-0.382833 -97.651168 139.112374 -0.279921 -9.694844 129.270558)" gradientUnits="userSpaceOnUse" x1="0.136364" x2="0.404698" y1="0.636831" y2="0.153269">
            <stop offset="0" stop-color="#56c5c4"/>
            <stop offset="1" stop-color="#1d65c9"/>
        </linearGradient>
        <clipPath id="i">
            <path d="m 20.496094 28.070312 h 102.914062 v 57.929688 h -102.914062 z m 0 0"/>
        </clipPath>
        <clipPath id="j">
            <path d="m 20.5 75.929688 c -0.097656 2.589843 1.496094 5.09375 4.417969 6.945312 c 2.925781 1.855469 6.933593 2.898438 11.121093 2.898438 h 16.492188 c 6.46875 0 12.9375 -0.003907 19.40625 0 h 0.070312 h 15.949219 c 6.625 0 13.253907 -0.003907 19.878907 0 c 1.574218 0.019531 3.121093 -0.136719 4.589843 -0.429688 c 0.015625 0 0.027344 -0.003906 0.042969 -0.007812 c 0.40625 -0.082032 0.8125 -0.167969 1.214844 -0.273438 c 0.347656 -0.089844 0.6875 -0.1875 1.027344 -0.292969 c 0.035156 -0.007812 0.070312 -0.023437 0.109374 -0.03125 c 0.160157 -0.046875 0.3125 -0.09375 0.472657 -0.144531 c 0.90625 -0.304688 1.765625 -0.667969 2.5625 -1.082031 c 1.273437 -0.667969 2.359375 -1.457031 3.230469 -2.339844 c 0.230468 -0.230469 0.449218 -0.472656 0.652343 -0.714844 c 0.867188 -1.042969 1.410157 -2.1875 1.558594 -3.378906 c 0.003906 -0.035156 0.015625 -0.074219 0.019531 -0.113281 c 0.019532 -0.148438 0.03125 -0.292969 0.039063 -0.441406 c 0.019531 -0.214844 0.03125 -0.425782 0.023437 -0.640626 c -0.003906 -0.015624 -0.003906 -0.03125 -0.007812 -0.046874 c -0.015625 -0.269532 -0.046875 -0.539063 -0.105469 -0.808594 c -0.246094 -1.296875 -0.914063 -2.546875 -1.964844 -3.679688 l -0.148437 -0.160156 c -0.304688 -0.351562 -0.628906 -0.703125 -0.972656 -1.042969 l -16.828126 -18.03125 l -17.953124 -19.234375 c -2.941407 -3.152344 -8.503907 -5.003906 -14.378907 -4.792968 c -1.972656 0.058593 -3.929687 0.347656 -5.738281 0.902343 c -1.496094 0.402344 -2.792969 0.984375 -3.945312 1.664063 c -0.046876 0.03125 -0.097657 0.0625 -0.148438 0.089844 c -0.253906 0.15625 -0.503906 0.3125 -0.742188 0.480468 c -0.195312 0.136719 -0.386718 0.273438 -0.570312 0.414063 c -0.136719 0.105469 -0.269531 0.210937 -0.402344 0.316406 c -0.109375 0.089844 -0.21875 0.183594 -0.324218 0.277344 c -0.6875 0.585937 -1.304688 1.210937 -1.847657 1.847656 c -0.03125 0.050781 -0.058593 0.101563 -0.089843 0.148437 l -34.632813 37.121094 c -1.300781 1.394532 -2.015625 2.972656 -2.078125 4.582032 z m 0 0"/>
        </clipPath>
        <linearGradient id="k" gradientTransform="matrix(-0.277863 -71.018566 106.690968 -0.215086 18.757248 93.704163)" gradientUnits="userSpaceOnUse" x1="0.1875" x2="0.422119" y1="0.863331" y2="0.276785">
            <stop offset="0" stop-color="#2dc0af"/>
            <stop offset="1" stop-color="#3584e4"/>
        </linearGradient>
        <clipPath id="l">
            <path d="m 43 55 h 80.410156 v 31 h -80.410156 z m 0 0"/>
        </clipPath>
        <clipPath id="m">
            <path d="m 20.5 75.929688 c -0.097656 2.589843 1.496094 5.09375 4.417969 6.945312 c 2.925781 1.855469 6.933593 2.898438 11.121093 2.898438 h 16.492188 c 6.46875 0 12.9375 -0.003907 19.40625 0 h 0.070312 h 15.949219 c 6.625 0 13.253907 -0.003907 19.878907 0 c 1.574218 0.019531 3.121093 -0.136719 4.589843 -0.429688 c 0.015625 0 0.027344 -0.003906 0.042969 -0.007812 c 0.40625 -0.082032 0.8125 -0.167969 1.214844 -0.273438 c 0.347656 -0.089844 0.6875 -0.1875 1.027344 -0.292969 c 0.035156 -0.007812 0.070312 -0.023437 0.109374 -0.03125 c 0.160157 -0.046875 0.3125 -0.09375 0.472657 -0.144531 c 0.90625 -0.304688 1.765625 -0.667969 2.5625 -1.082031 c 1.273437 -0.667969 2.359375 -1.457031 3.230469 -2.339844 c 0.230468 -0.230469 0.449218 -0.472656 0.652343 -0.714844 c 0.867188 -1.042969 1.410157 -2.1875 1.558594 -3.378906 c 0.003906 -0.035156 0.015625 -0.074219 0.019531 -0.113281 c 0.019532 -0.148438 0.03125 -0.292969 0.039063 -0.441406 c 0.019531 -0.214844 0.03125 -0.425782 0.023437 -0.640626 c -0.003906 -0.015624 -0.003906 -0.03125 -0.007812 -0.046874 c -0.015625 -0.269532 -0.046875 -0.539063 -0.105469 -0.808594 c -0.246094 -1.296875 -0.914063 -2.546875 -1.964844 -3.679688 l -0.148437 -0.160156 c -0.304688 -0.351562 -0.628906 -0.703125 -0.972656 -1.042969 l -16.828126 -18.03125 l -17.953124 -19.234375 c -2.941407 -3.152344 -8.503907 -5.003906 -14.378907 -4.792968 c -1.972656 0.058593 -3.929687 0.347656 -5.738281 0.902343 c -1.496094 0.402344 -2.792969 0.984375 -3.945312 1.664063 c -0.046876 0.03125 -0.097657 0.0625 -0.148438 0.089844 c -0.253906 0.15625 -0.503906 0.3125 -0.742188 0.480468 c -0.195312 0.136719 -0.386718 0.273438 -0.570312 0.414063 c -0.136719 0.105469 -0.269531 0.210937 -0.402344 0.316406 c -0.109375 0.089844 -0.21875 0.183594 -0.324218 0.277344 c -0.6875 0.585937 -1.304688 1.210937 -1.847657 1.847656 c -0.03125 0.050781 -0.058593 0.101563 -0.089843 0.148437 l -34.632813 37.121094 c -1.300781 1.394532 -2.015625 2.972656 -2.078125 4.582032 z m 0 0"/>
        </clipPath>
        <linearGradient id="n" gradientTransform="matrix(0 -73.150949 103.29862 0 43.14974 128.229441)" gradientUnits="userSpaceOnUse" x1="0.562523" x2="-0.308168" y1="0.597858" y2="0.473474">
            <stop offset="0" stop-color="#ffffff" stop-opacity="0.4"/>
            <stop offset="1" stop-color="#ffffff" stop-opacity="0"/>
        </linearGradient>
        <clipPath id="o">
            <path d="m 46 28.070312 h 77 v 39.929688 h -77 z m 0 0"/>
        </clipPath>
        <clipPath id="p">
            <path d="m 20.5 75.929688 c -0.097656 2.589843 1.496094 5.09375 4.417969 6.945312 c 2.925781 1.855469 6.933593 2.898438 11.121093 2.898438 h 16.492188 c 6.46875 0 12.9375 -0.003907 19.40625 0 h 0.070312 h 15.949219 c 6.625 0 13.253907 -0.003907 19.878907 0 c 1.574218 0.019531 3.121093 -0.136719 4.589843 -0.429688 c 0.015625 0 0.027344 -0.003906 0.042969 -0.007812 c 0.40625 -0.082032 0.8125 -0.167969 1.214844 -0.273438 c 0.347656 -0.089844 0.6875 -0.1875 1.027344 -0.292969 c 0.035156 -0.007812 0.070312 -0.023437 0.109374 -0.03125 c 0.160157 -0.046875 0.3125 -0.09375 0.472657 -0.144531 c 0.90625 -0.304688 1.765625 -0.667969 2.5625 -1.082031 c 1.273437 -0.667969 2.359375 -1.457031 3.230469 -2.339844 c 0.230468 -0.230469 0.449218 -0.472656 0.652343 -0.714844 c 0.867188 -1.042969 1.410157 -2.1875 1.558594 -3.378906 c 0.003906 -0.035156 0.015625 -0.074219 0.019531 -0.113281 c 0.019532 -0.148438 0.03125 -0.292969 0.039063 -0.441406 c 0.019531 -0.214844 0.03125 -0.425782 0.023437 -0.640626 c -0.003906 -0.015624 -0.003906 -0.03125 -0.007812 -0.046874 c -0.015625 -0.269532 -0.046875 -0.539063 -0.105469 -0.808594 c -0.246094 -1.296875 -0.914063 -2.546875 -1.964844 -3.679688 l -0.148437 -0.160156 c -0.304688 -0.351562 -0.628906 -0.703125 -0.972656 -1.042969 l -16.828126 -18.03125 l -17.953124 -19.234375 c -2.941407 -3.152344 -8.503907 -5.003906 -14.378907 -4.792968 c -1.972656 0.058593 -3.929687 0.347656 -5.738281 0.902343 c -1.496094 0.402344 -2.792969 0.984375 -3.945312 1.664063 c -0.046876 0.03125 -0.097657 0.0625 -0.148438 0.089844 c -0.253906 0.15625 -0.503906 0.3125 -0.742188 0.480468 c -0.195312 0.136719 -0.386718 0.273438 -0.570312 0.414063 c -0.136719 0.105469 -0.269531 0.210937 -0.402344 0.316406 c -0.109375 0.089844 -0.21875 0.183594 -0.324218 0.277344 c -0.6875 0.585937 -1.304688 1.210937 -1.847657 1.847656 c -0.03125 0.050781 -0.058593 0.101563 -0.089843 0.148437 l -34.632813 37.121094 c -1.300781 1.394532 -2.015625 2.972656 -2.078125 4.582032 z m 0 0"/>
        </clipPath>
        <linearGradient id="q" gradientTransform="matrix(-0.17598 -44.804809 75.162841 -0.151281 47.098195 67.443066)" gradientUnits="userSpaceOnUse" x1="0.99036" x2="0.107737" y1="0.399412" y2="0.508042">
            <stop offset="0" stop-color="#2dc0af"/>
            <stop offset="1" stop-color="#5ed9cb"/>
        </linearGradient>
        <clipPath id="r">
            <path d="m 47 75 h 55 v 52.402344 h -55 z m 0 0"/>
        </clipPath>
        <clipPath id="s">
            <path d="m 54.078125 75.898438 h 36.1875 c 6.402344 0 11.601563 5.199218 11.601563 11.601562 v 28.300781 c 0 6.402344 -5.199219 11.601563 -11.601563 11.601563 h -36.1875 c -6.402344 0 -11.601563 -5.199219 -11.601563 -11.601563 v -28.300781 c 0 -6.402344 5.199219 -11.601562 11.601563 -11.601562 z m 0 0"/>
        </clipPath>
        <clipPath id="t">
            <path d="m 42 75 h 60 v 52.402344 h -60 z m 0 0"/>
        </clipPath>
        <clipPath id="u">
            <path d="m 54.078125 75.898438 h 36.1875 c 6.402344 0 11.601563 5.199218 11.601563 11.601562 v 28.300781 c 0 6.402344 -5.199219 11.601563 -11.601563 11.601563 h -36.1875 c -6.402344 0 -11.601563 -5.199219 -11.601563 -11.601563 v -28.300781 c 0 -6.402344 5.199219 -11.601562 11.601563 -11.601562 z m 0 0"/>
        </clipPath>
        <clipPath id="v">
            <path d="m 42 75 h 60 v 19 h -60 z m 0 0"/>
        </clipPath>
        <clipPath id="w">
            <path d="m 54.078125 75.898438 h 36.1875 c 6.402344 0 11.601563 5.199218 11.601563 11.601562 v 28.300781 c 0 6.402344 -5.199219 11.601563 -11.601563 11.601563 h -36.1875 c -6.402344 0 -11.601563 -5.199219 -11.601563 -11.601563 v -28.300781 c 0 -6.402344 5.199219 -11.601562 11.601563 -11.601562 z m 0 0"/>
        </clipPath>
        <clipPath id="x">
            <path d="m 43 75 h 59 v 52.402344 h -59 z m 0 0"/>
        </clipPath>
        <clipPath id="y">
            <path d="m 54.078125 75.898438 h 36.1875 c 6.402344 0 11.601563 5.199218 11.601563 11.601562 v 28.300781 c 0 6.402344 -5.199219 11.601563 -11.601563 11.601563 h -36.1875 c -6.402344 0 -11.601563 -5.199219 -11.601563 -11.601563 v -28.300781 c 0 -6.402344 5.199219 -11.601562 11.601563 -11.601562 z m 0 0"/>
        </clipPath>
        <clipPath id="z">
            <rect height="152" width="192"/>
        </clipPath>
        <g id="A" clip-path="url(#z)">
            <g clip-path="url(#b)">
                <path d="m 20.527344 77.566406 c -0.101563 2.554688 -0.328125 5.875 3.179687 8.429688 c 2.925781 1.828125 5.035157 3.472656 12.359375 3.472656 h 16.496094 c 6.464844 0 12.9375 -0.003906 19.402344 0 h 16.019531 c 6.628906 0 13.253906 -0.003906 19.878906 0 c 1.578125 0.019531 3.121094 -0.136719 4.589844 -0.421875 c 0.015625 -0.003906 0.027344 -0.003906 0.042969 -0.007813 c 0.410156 -0.082031 0.816406 -0.167968 1.21875 -0.273437 c 0.34375 -0.085937 0.6875 -0.183594 1.023437 -0.289063 c 0.039063 -0.007812 0.070313 -0.019531 0.109375 -0.03125 c 0.160156 -0.042968 0.316406 -0.089843 0.476563 -0.136718 c 0.90625 -0.304688 1.761719 -0.660156 2.558593 -1.074219 c 1.273438 -0.65625 2.363282 -1.433594 3.230469 -2.304687 c 0.230469 -0.230469 0.453125 -0.46875 0.652344 -0.707032 c 0.867187 -1.03125 1.414063 -2.15625 1.5625 -3.335937 c 0.003906 -0.035157 0.011719 -0.070313 0.019531 -0.109375 c 0.015625 -0.144532 0.027344 -0.292969 0.035156 -0.4375 c 0.019532 -0.210938 0.03125 -0.421875 0.023438 -0.632813 c -0.003906 -0.015625 -0.003906 -0.03125 -0.007812 -0.046875 c -0.015626 -0.265625 0.03125 -2.644531 -0.027344 -2.90625 c -0.246094 -1.28125 -0.988282 -0.402344 -2.042969 -1.519531 l -0.144531 -0.160156 c -0.308594 -0.347657 -0.632813 -0.695313 -0.976563 -1.027344 v -0.003906 l -16.828125 -17.792969 l -17.949218 -18.984375 c -2.941407 -3.109375 -8.507813 -4.9375 -14.382813 -4.726563 c -1.972656 0.058594 -3.925781 0.34375 -5.738281 0.886719 c -1.496094 0.402344 -2.792969 0.972657 -3.941406 1.648438 c -0.050782 0.027343 -0.101563 0.058593 -0.148438 0.085937 c -0.253906 0.15625 -0.503906 0.308594 -0.746094 0.472656 c -0.195312 0.136719 -0.386718 0.273438 -0.566406 0.410157 c -0.136719 0.101562 -0.269531 0.207031 -0.402344 0.3125 c -0.113281 0.089843 -0.222656 0.179687 -0.328125 0.273437 c -0.6875 0.582032 -1.300781 1.195313 -1.847656 1.824219 c -0.03125 0.050781 -0.058594 0.097656 -0.089844 0.148437 l -12.789062 36.925782 c 3.039062 4.378906 -24.027344 -10.613282 -23.921875 2.039062 z m 0 0" fill="url(#c)" fill-rule="evenodd"/>
            </g>
            <g clip-path="url(#d)">
                <g clip-path="url(#e)">
                    <path d="m 47.417969 110.984375 c -0.132813 4.777344 2.425781 9.398437 7.09375 12.808594 c 4.671875 3.410156 11.0625 5.328125 17.730469 5.3125 l 57.175781 -0.113281 c 8.847656 -0.019532 17.007812 -3.421876 21.410156 -8.921876 c 4.398437 -5.5 4.371094 -12.273437 -0.066406 -17.753906 l -28.730469 -35.453125 c -4.449219 -5.484375 -12.632812 -8.851562 -21.476562 -8.832031 c -8.847657 0.015625 -17.007813 3.417969 -21.410157 8.917969 l -28.449219 35.566406 c -2.0625 2.578125 -3.1875 5.492187 -3.277343 8.46875 z m 0 0" fill="#2bbfae" fill-rule="evenodd"/>
                </g>
            </g>
            <g clip-path="url(#f)">
                <g clip-path="url(#g)">
                    <path d="m -9.757812 111.097656 c -0.132813 4.777344 2.417968 9.398438 7.089843 12.808594 c 4.675781 3.410156 11.066407 5.328125 17.734375 5.316406 l 114.351563 -0.230468 l -0.140625 -35.511719 l -71.472656 0.144531 l 35.5625 -44.460938 l -42.949219 -17.667968 l -56.898438 71.136718 c -2.0625 2.578126 -3.1875 5.488282 -3.277343 8.464844 z m 0 0" fill="url(#h)" fill-rule="evenodd"/>
                </g>
            </g>
            <g clip-path="url(#i)">
                <g clip-path="url(#j)">
                    <path d="m 18.691406 75.53125 c -0.136718 4.777344 2.417969 9.398438 7.09375 12.808594 c 4.667969 3.410156 11.0625 5.328125 17.726563 5.3125 l 57.183593 -0.113282 c 8.839844 -0.019531 17 -3.421874 21.402344 -8.921874 c 4.398438 -5.503907 4.371094 -12.269532 -0.066406 -17.753907 l -28.730469 -35.453125 c -4.441406 -5.480468 -12.628906 -8.851562 -21.476562 -8.832031 c -8.84375 0.015625 -17.003907 3.417969 -21.40625 8.917969 l -28.453125 35.570312 c -2.0625 2.578125 -3.1875 5.488282 -3.273438 8.464844 z m 0 0" fill="url(#k)" fill-rule="evenodd"/>
                </g>
            </g>
            <g clip-path="url(#l)">
                <g clip-path="url(#m)">
                    <path d="m 43.148438 128.207031 c 12.925781 0.046875 25.847656 0.003907 38.769531 0.019531 h 0.078125 h 39.359375 c 3.050781 0 8.011719 -0.96875 12.367187 -2.878906 c 4.355469 -1.917968 8.105469 -4.777344 9.628906 -7.605468 c 1.011719 -1.875 2.023438 -3.539063 2.605469 -5.714844 c 0.355469 -1.335938 0.550781 -3.136719 0.476563 -4.492188 c -0.167969 -3.117187 -1.03125 -5.445312 -2.453125 -8.078125 l -27.550781 -35.898437 c -3.054688 -5.65625 -8.691407 -8.480469 -14.792969 -8.480469 c -6.101563 0 -11.738281 3.484375 -14.792969 9.144531 l -19.714844 36.570313 c -0.230468 0.4375 -0.449218 0.886719 -0.644531 1.34375 c -3.351563 6.164062 -6.582031 12.40625 -10.0625 18.480469 c -3.019531 4.550781 -8.070313 7.410156 -13.273437 7.589843 z m 0 0" fill="url(#n)" fill-rule="evenodd"/>
                </g>
            </g>
            <g clip-path="url(#o)">
                <g clip-path="url(#p)">
                    <path d="m 122.261719 67.292969 c -9.628907 -11.980469 -19.371094 -23.921875 -29.042969 -35.882813 c -6.0625 -7.804687 -20.828125 -11.117187 -31.992188 -7.117187 c -5.78125 1.832031 -9.804687 5.5 -12.671874 9.429687 c -5.152344 9.484375 2.886718 21.648438 17.28125 23.828125 c 1.9375 0.636719 3.964843 0.554688 6.125 0.535157 c 10.328124 0.03125 20.664062 -0.148438 30.980468 0.027343 c 8.042969 0.527344 15.503906 4.074219 19.320313 9.179688 z m 0 0" fill="url(#q)" fill-rule="evenodd"/>
                </g>
            </g>
            <g clip-path="url(#r)">
                <g clip-path="url(#s)">
                    <path d="m 47.417969 110.984375 c -0.132813 4.777344 2.425781 9.398437 7.09375 12.808594 c 4.671875 3.410156 11.0625 5.328125 17.730469 5.3125 l 57.175781 -0.113281 c 8.847656 -0.019532 17.007812 -3.421876 21.410156 -8.921876 c 4.398437 -5.5 4.371094 -12.273437 -0.066406 -17.753906 l -28.730469 -35.453125 c -4.449219 -5.484375 -12.632812 -8.851562 -21.476562 -8.832031 c -8.847657 0.015625 -17.007813 3.417969 -21.410157 8.917969 l -28.449219 35.566406 c -2.0625 2.578125 -3.1875 5.492187 -3.277343 8.46875 z m 0 0" fill="#2bbfae" fill-rule="evenodd"/>
                </g>
            </g>
            <g clip-path="url(#t)">
                <g clip-path="url(#u)">
                    <path d="m -9.757812 111.097656 c -0.132813 4.777344 2.417968 9.398438 7.089843 12.808594 c 4.675781 3.410156 11.066407 5.328125 17.734375 5.316406 l 114.351563 -0.230468 l -0.140625 -35.511719 l -71.472656 0.144531 l 35.5625 -44.460938 l -42.949219 -17.667968 l -56.898438 71.136718 c -2.0625 2.578126 -3.1875 5.488282 -3.277343 8.464844 z m 0 0" fill="url(#h)" fill-rule="evenodd"/>
                </g>
            </g>
            <g clip-path="url(#v)">
                <g clip-path="url(#w)">
                    <path d="m 18.691406 75.53125 c -0.136718 4.777344 2.417969 9.398438 7.09375 12.808594 c 4.667969 3.410156 11.0625 5.328125 17.726563 5.3125 l 57.183593 -0.113282 c 8.839844 -0.019531 17 -3.421874 21.402344 -8.921874 c 4.398438 -5.503907 4.371094 -12.269532 -0.066406 -17.753907 l -28.730469 -35.453125 c -4.441406 -5.480468 -12.628906 -8.851562 -21.476562 -8.832031 c -8.84375 0.015625 -17.003907 3.417969 -21.40625 8.917969 l -28.453125 35.570312 c -2.0625 2.578125 -3.1875 5.488282 -3.273438 8.464844 z m 0 0" fill="url(#k)" fill-rule="evenodd"/>
                </g>
            </g>
            <g clip-path="url(#x)">
                <g clip-path="url(#y)">
                    <path d="m 43.148438 128.207031 c 12.925781 0.046875 25.847656 0.003907 38.769531 0.019531 h 0.078125 h 39.359375 c 3.050781 0 8.011719 -0.96875 12.367187 -2.878906 c 4.355469 -1.917968 8.105469 -4.777344 9.628906 -7.605468 c 1.011719 -1.875 2.023438 -3.539063 2.605469 -5.714844 c 0.355469 -1.335938 0.550781 -3.136719 0.476563 -4.492188 c -0.167969 -3.117187 -1.03125 -5.445312 -2.453125 -8.078125 l -27.550781 -35.898437 c -3.054688 -5.65625 -8.691407 -8.480469 -14.792969 -8.480469 c -6.101563 0 -11.738281 3.484375 -14.792969 9.144531 l -19.714844 36.570313 c -0.230468 0.4375 -0.449218 0.886719 -0.644531 1.34375 c -3.351563 6.164062 -6.582031 12.40625 -10.0625 18.480469 c -3.019531 4.550781 -8.070313 7.410156 -13.273437 7.589843 z m 0 0" fill="url(#n)" fill-rule="evenodd"/>
                </g>
            </g>
        </g>
        <clipPath id="B">
            <rect height="128" width="128"/>
        </clipPath>
        <clipPath id="C">
            <rect height="128" width="128"/>
        </clipPath>
        <filter id="D" height="100%" width="100%" x="0%" y="0%">
            <feColorMatrix in="SourceGraphic" type="matrix" values="0 0 0 0 1 0 0 0 0 1 0 0 0 0 1 0 0 0 1 0"/>
        </filter>
        <mask id="E">
            <g clip-path="url(#C)" filter="url(#D)">
                <g clip-path="url(#B)">
                    <path d="m 41.347656 69.808594 h 45.546875 c 3.78125 0 6.847657 4.9375 6.847657 11.03125 v 24.035156 c 0 6.09375 -3.066407 11.035156 -6.847657 11.035156 h -45.546875 c -3.785156 0 -6.851562 -4.941406 -6.851562 -11.035156 v -24.035156 c 0 -6.09375 3.066406 -11.03125 6.851562 -11.03125 z m 0 0" fill="url(#a)"/>
                    <use transform="matrix(1 0 0 1 -8 -16)" xlink:href="#A"/>
                </g>
            </g>
        </mask>
        <mask id="F">
            <g filter="url(#D)">
                <rect fill-opacity="0.8" height="128" width="128"/>
            </g>
        </mask>
        <linearGradient id="G" gradientTransform="matrix(0 0.37 -0.98462 0 295.38501 -30.360001)" gradientUnits="userSpaceOnUse" x1="300" x2="428" y1="235" y2="235">
            <stop offset="0" stop-color="#f9f06b"/>
            <stop offset="1" stop-color="#f5c211"/>
        </linearGradient>
        <clipPath id="H">
            <rect height="128" width="128"/>
        </clipPath>
        <clipPath id="I">
            <rect height="128" width="128"/>
        </clipPath>
    </defs>
    <path d="m 41.347656 69.808594 h 45.546875 c 3.78125 0 6.847657 4.9375 6.847657 11.03125 v 24.035156 c 0 6.09375 -3.066407 11.035156 -6.847657 11.035156 h -45.546875 c -3.785156 0 -6.851562 -4.941406 -6.851562 -11.035156 v -24.035156 c 0 -6.09375 3.066406 -11.03125 6.851562 -11.03125 z m 0 0" fill="url(#a)"/>
    <use transform="matrix(1 0 0 1 -8 -16)" xlink:href="#A"/>
    <g clip-path="url(#I)" mask="url(#E)">
        <g clip-path="url(#H)" mask="url(#F)">
            <path d="m 128 80.640625 v 47.359375 h -128 v -47.359375 z m 0 0" fill="url(#G)"/>
            <path d="m 13.308594 80.640625 l 47.355468 47.359375 h 21.214844 l -47.359375 -47.359375 z m 42.421875 0 l 47.363281 47.359375 h 21.214844 l -47.363282 -47.359375 z m 42.429687 0 l 29.839844 29.839844 v -21.210938 l -8.628906 -8.628906 z m -98.160156 7.90625 v 21.214844 l 18.238281 18.238281 h 21.214844 z m 0 0"/>
        </g>
    </g>
</svg>
