<?xml version="1.0" encoding="UTF-8"?>
<svg id="uuid-aab32cc0-d45b-4719-85c2-25bb75382c72" data-name="uuid-0aa62961-006b-48e1-a783-34b974dd1832" xmlns="http://www.w3.org/2000/svg" viewBox="0 0 128 128">
  <defs>
    <style>
      .uuid-cf049c5f-46e2-423c-8985-9a982a01f803 {
        fill: #4fcd7c;
      }

      .uuid-c0e9dd38-8e75-4505-8fec-a202701e983f {
        fill: #2aaf72;
      }

      .uuid-feb67b88-15a5-48ad-b140-b7d6ddb386f2 {
        fill: #d8a3c8;
      }

      .uuid-41d1b08d-697b-42ba-993b-831065c56b2e {
        fill: #368c55;
      }

      .uuid-2703e385-8161-49df-8b9b-40aad3cc1f86 {
        fill: #e1d961;
      }

      .uuid-ca16c653-fd6f-4eb1-9e74-83b63a12ff92 {
        fill: #3077ce;
      }

      .uuid-6d26e306-2994-4264-b6cb-41343c603f43 {
        fill: #1d7c51;
      }

      .uuid-5a33006a-513f-489e-b0ab-1e6ccfdf5085 {
        fill: #21518d;
      }
    </style>
  </defs>
  <path class="uuid-6d26e306-2994-4264-b6cb-41343c603f43" d="M59.650024414,94.929992676v5.220031738H12.609985352c-4.729980469,0-8.58996582-3.820007324-8.58996582-8.5v-5.220031738c0,2.33001709,.959960938,4.450012207,2.519958496,6,1.550048828,1.539978027,3.700012207,2.5,6.070007324,2.5H59.650024414Z"/>
  <path class="uuid-5a33006a-513f-489e-b0ab-1e6ccfdf5085" d="M124,61.380004883v5.229980469c0,.989990234-.219970703,1.989990234-.650024414,2.91003418-.380004883,.799987793-.91998291,1.549987793-1.619995117,2.190002441l-13.289978027,11.989990234v-5.220031738l.010009766-.010009766,13.279968262-11.979980469v-.010009766c.360046387-.320007324,.670043945-.659973145,.929992676-1.029968262,.100036621-.130004883,.190002441-.270019531,.260009766-.400024414,.130004883-.179992676,.239990234-.369995117,.33001709-.559997559,.039978027-.059997559,.070007324-.130004883,.099975586-.200012207,.110046387-.239990234,.210021973-.479980469,.290039062-.729980469,.039978027-.090026855,.070007324-.190002441,.08996582-.279968262,.050048828-.180053711,.100036621-.370056152,.140014648-.550048828,.039978027-.219970703,.070007324-.440002441,.090026855-.649963379,.029968262-.239990234,.039978027-.470031738,.039978027-.700012207Z"/>
  <polygon class="uuid-41d1b08d-697b-42ba-993b-831065c56b2e" points="108.440002441 78.479980469 108.440002441 83.700012207 87.780029297 102.340026855 87.780029297 97.109985352 87.789978027 97.109985352 87.789978027 97.099975586 108.429992676 78.479980469 108.440002441 78.479980469"/>
  <path class="uuid-6d26e306-2994-4264-b6cb-41343c603f43" d="M87.780029297,97.119995117v5.220031738l-16.480041504,14.849975586c-1.380004883,1.25-3.029968262,1.809997559-4.640014648,1.809997559-3.58996582,0-7.00994873-2.770019531-7.00994873-6.91998291v-5.220031738c0,.780029297,.119995117,1.510009766,.33996582,2.179992676,.100036621,.290039062,.210021973,.570007324,.350036621,.840026855,.059997559,.140014648,.129943848,.270019531,.209960938,.400024414,.16003418,.299987793,.359985352,.58996582,.58001709,.849975586v.010009766c.140014648,.16998291,.279968262,.329956055,.440002441,.489990234,.130004883,.140014648,.270019531,.270019531,.409973145,.390014648,.210021973,.190002441,.440002441,.359985352,.670043945,.519958496,.409973145,.280029297,.849975586,.520019531,1.309997559,.710021973,.190002441,.08001709,.389953613,.150024414,.599975586,.210021973,.200012207,.059997559,.400024414,.119995117,.609985352,.159973145,.040039062,.010009766,.070007324,.020019531,.100036621,.020019531,.16998291,.039978027,.329956055,.059997559,.5,.079956055,.059997559,.010009766,.119995117,.020019531,.179992676,.020019531,.229980469,.030029297,.469970703,.040039062,.709960938,.040039062,.800048828,0,1.610046387-.140014648,2.400024414-.440002441h.010009766c.58996582-.220031738,1.159973145-.520019531,1.700012207-.930053711,.179992676-.139953613,.359985352-.279968262,.529968262-.440002441l16.480041504-14.849975586Z"/>
  <path class="uuid-ca16c653-fd6f-4eb1-9e74-83b63a12ff92" d="M124,61.380004883c0-1.869995117-.760009766-3.729980469-2.270019531-5.099975586l-.010009766,.019958496L71.280029297,10.809997559c-1.380004883-1.25-3.020019531-1.809997559-4.630004883-1.809997559-3.590026855,0-7.010009766,2.770019531-7.010009766,6.909973145v11.920043945H12.609985352c-4.729980469,0-8.58996582,3.829956055-8.58996582,8.5v50.099975586c0,2.33001709,.959960938,4.450012207,2.519958496,6,1.550048828,1.539978027,3.700012207,2.5,6.070007324,2.5H59.650024414v11.929992676c0,.780029297,.119995117,1.510009766,.33996582,2.179992676,.100036621,.290039062,.210021973,.570007324,.350036621,.840026855,.059997559,.140014648,.129943848,.270019531,.209960938,.400024414,.16003418,.299987793,.359985352,.58996582,.58001709,.849975586v.010009766c.140014648,.16998291,.289978027,.329956055,.440002441,.489990234,.130004883,.140014648,.270019531,.270019531,.409973145,.390014648,.210021973,.190002441,.440002441,.359985352,.670043945,.519958496,.409973145,.280029297,.849975586,.520019531,1.309997559,.710021973,.190002441,.08001709,.389953613,.150024414,.599975586,.210021973,.200012207,.059997559,.400024414,.119995117,.609985352,.159973145,.040039062,.010009766,.070007324,.020019531,.100036621,.020019531,.16998291,.039978027,.329956055,.059997559,.5,.079956055,.059997559,.010009766,.119995117,.020019531,.179992676,.020019531,.229980469,.030029297,.469970703,.040039062,.709960938,.040039062,.800048828,0,1.610046387-.140014648,2.400024414-.440002441h.010009766c.58996582-.220031738,1.159973145-.520019531,1.700012207-.930053711,.179992676-.139953613,.359985352-.279968262,.529968262-.440002441l16.480041504-14.849975586v-.010009766c-.100036621-.109985352-.200012207-.229980469-.300048828-.359985352,.110046387,.119995117,.210021973,.239990234,.309997559,.349975586h.010009766v.010009766h-.010009766v5.230041504l20.66003418-18.640014648,13.289978027-11.989990234c.700012207-.640014648,1.239990234-1.390014648,1.619995117-2.190002441,.429992676-.920043945,.650024414-1.920043945,.650024414-2.91003418v-5.229980469m-15.559997559,17.099975586v-.010009766h.010009766l-.010009766,.010009766Z"/>
  <ellipse class="uuid-2703e385-8161-49df-8b9b-40aad3cc1f86" cx="81.427116394" cy="41.012252808" rx="9.678382874" ry="9.586601257"/>
  <path class="uuid-5a33006a-513f-489e-b0ab-1e6ccfdf5085" d="M123.994995117,61.369995117v5.229980469c0,.989990234-.220031738,1.989990234-.650024414,2.91003418-.380004883,.799987793-.91998291,1.549987793-1.619995117,2.190002441l-13.289978027,11.989990234-20.66003418,18.640014648v-5.230041504h.010009766v-.010009766l20.640014648-18.619995117h.010009766l.010009766-.010009766,13.279968262-11.979980469v-.010009766c.359985352-.320007324,.66998291-.659973145,.929992676-1.029968262,.100036621-.130004883,.190002441-.270019531,.260009766-.400024414,.130004883-.179992676,.239990234-.369995117,.33001709-.559997559,.029968262-.059997559,.059997559-.130004883,.099975586-.190002441v-.010009766c.109985352-.239990234,.210021973-.479980469,.290039062-.729980469,.039978027-.090026855,.069946289-.190002441,.08996582-.279968262,.049987793-.180053711,.100036621-.370056152,.140014648-.550048828,.039978027-.219970703,.070007324-.440002441,.08996582-.649963379,.030029297-.230041504,.040039062-.470031738,.040039062-.700012207Z"/>
  <path class="uuid-cf049c5f-46e2-423c-8985-9a982a01f803" d="M80.840026855,66.83001709h-.510009766l.019958496-.010009766h-.190002441c-1.569946289,.010009766-3.16998291,.130004883-4.83996582,.359985352-.380004883,.059997559-.75,.119995117-1.119995117,.179992676-5.270019531,.929992676-10.230041504,2.980041504-14.619995117,5.75l-.010009766,.010009766s-.010009766,0-.010009766-.010009766c-1.559997559-.83996582-3.159973145-1.640014648-4.809997559-2.369995117-.489990234-.229980469-.989990234-.450012207-1.479980469-.649963379-.110046387-.059997559-.220031738-.100036621-.340026855-.150024414-.5-.200012207-1.010009766-.400024414-1.510009766-.599975586-.570007324-.220031738-1.139953613-.430053711-1.709960938-.630004883-.570007324-.200012207-1.150024414-.390014648-1.730041504-.58001709-.66998291-.220031738-1.349975586-.429992676-2.039978027-.619995117-.650024414-.179992676-1.299987793-.350036621-1.950012207-.5-.599975586-.150024414-1.209960938-.290039062-1.820007324-.41003418-.229980469-.049987793-.459960938-.099975586-.690002441-.139953613-.409973145-.08001709-.820007324-.16003418-1.239990234-.220031738-.239990234-.059997559-.489990234-.099975586-.739990234-.130004883-.219970703-.039978027-.440002441-.070007324-.66998291-.099975586-.110046387-.020019531-.230041504-.040039062-.350036621-.049987793-.469970703-.070007324-.940002441-.130004883-1.409973145-.179992676-.559997559-.070007324-1.130004883-.120056152-1.690002441-.16003418-.619995117-.059997559-1.25-.099975586-1.880004883-.119995117-.299987793-.020019531-.599975586-.030029297-.900024414-.030029297-.429992676-.019958496-.849975586-.029968262-1.279968262-.029968262h-.429992676v.010009766c-.359985352,0-.710021973,.010009766-1.070007324,.010009766-.359985352,.00994873-.710021973,.029968262-1.070007324,.039978027-2.159973145,.099975586-4.349975586,.320007324-6.58001709,.690002441-1.979980469,.320007324-4.479980469,.849975586-7.219970703,1.559997559-.390014648,.109985352-.790039062,.229980469-1.200012207,.33001709-.789978027,.229980469-1.590026855,.459960938-2.400024414,.709960938-.399963379,.130004883-.809997559,.260009766-1.229980469,.390014648-2.049987793,.66998291-4.109985352,1.450012207-6.08996582,2.309997559v14.940002441c0,2.33001709,.959960938,4.450012207,2.519958496,6,1.549987793,1.539978027,3.700012207,2.5,6.070007324,2.5H59.659973145v17.150024414c0,4.149963379,3.420043945,6.91998291,7.010009766,6.91998291,1.610046387,0,3.260009766-.559997559,4.640014648-1.809997559l16.470031738-14.849975586,.00994873-.010009766,20.650024414-18.630004883v-5.220031738l.020019531-.010009766c-7.369995117-6.559997559-16.960021973-11.489990234-27.619995117-11.639953613Zm6.949951172,30.289978027l-.00994873,.010009766v-.020019531h.00994873v.010009766Z"/>
  <polygon class="uuid-cf049c5f-46e2-423c-8985-9a982a01f803" points="87.789978027 97.109985352 87.789978027 97.119995117 87.780029297 97.130004883 87.780029297 97.109985352 87.789978027 97.109985352"/>
  <path class="uuid-feb67b88-15a5-48ad-b140-b7d6ddb386f2" d="M59.660743713,27.831930161c0,5.982843399-3.189468384,9.285451889-8.428596497,12.818944931-.109981537,.070266724-.219963074,.150577545-.329948425,.220844269-.449924469,.291110992-.90984726,.562149048-1.379772186,.813106537-2.859523773,1.545902252-6.018997192,2.389122009-9.118476868,2.499546051-.249958038,0-.499916077,.010036469-.749874115,.010036469h-.12997818c-2.299613953-.020076752-4.559242249-.431648254-6.638893127-1.244754791-.149974823-.060230255-.289951324-.12046051-.429927826-.180690765-.109981537-.050189972-.229961395-.100379944-.339942932-.150577545-.139976501-.070266724-.289953232-.130500793-.429927826-.200767517-2.079652786-1.013870239-3.849357605-2.429275513-5.309114456-4.105674744-2.88951683,2.680233002-6.468919754,4.487133026-10.248289108,5.099472046-.12997818,.020076752-.269955635,.040153503-.399932861,.060230255-.749875069,.100379944-1.499750137,.150577545-2.239625931,.160614014h-.169971466c-.709881783,0-1.419763565-.040153503-2.119646072-.12046051-.49991703-.060230255-.999833107-.130500793-1.489750862-.230880737-.729878426-.140537262-1.459756851-.321228027-2.169638157-.542072296-.369938374-.110424042-.729878426-.230880737-1.089818478-.361381531-.819863319-.301147461-1.629728317-.64245224-2.419596672-1.033946991v-5.009120941c0-4.67786026,3.859355927-8.502464294,8.588567734-8.502464294,0,0,47.042154312,0,47.042154312-.000001907Z"/>
  <path class="uuid-c0e9dd38-8e75-4505-8fec-a202701e983f" d="M59.659973145,106.869995117v-6.719970703H12.619995117c-4.729980469,0-8.58996582-3.820007324-8.58996582-8.5v-20.16003418c1.979980469-.859985352,4.039978027-1.640014648,6.08996582-2.309997559,.41998291-.130004883,.83001709-.260009766,1.229980469-.390014648,.809997559-.25,1.610046387-.479980469,2.400024414-.709960938,.409973145-.100036621,.809997559-.210021973,1.200012207-.320007324,2.739990234-.720031738,5.239990234-1.25,7.219970703-1.570007324,2.230041504-.369995117,4.420043945-.590026855,6.58001709-.690002441,.359985352-.010009766,.710021973-.030029297,1.070007324-.039978027,.359985352,0,.710021973-.010009766,1.070007324-.010009766v-.010009766h.429992676c.429992676,0,.849975586,.010009766,1.279968262,.029968262,.300048828,0,.600036621,.010009766,.900024414,.030029297,.630004883,.020019531,1.260009766,.059997559,1.880004883,.119995117,.559997559,.039978027,1.130004883,.090026855,1.690002441,.16003418,.469970703,.049987793,.940002441,.109985352,1.409973145,.179992676,.119995117,.00994873,.239990234,.029968262,.350036621,.049987793,.229980469,.029968262,.450012207,.059997559,.66998291,.099975586,.25,.030029297,.5,.070007324,.739990234,.130004883,.41998291,.059997559,.83001709,.140014648,1.239990234,.220031738,.230041504,.039978027,.460021973,.08996582,.690002441,.139953613,.610046387,.119995117,1.220031738,.260009766,1.820007324,.41003418,.650024414,.149963379,1.299987793,.320007324,1.950012207,.510009766,.690002441,.190002441,1.369995117,.399963379,2.039978027,.609985352,.58001709,.190002441,1.16003418,.380004883,1.730041504,.58001709,.570007324,.199951172,1.139953613,.409973145,1.709960938,.630004883,.5,.199951172,1.010009766,.399963379,1.510009766,.599975586,.119995117,.059997559,.229980469,.099975586,.340026855,.159973145,.489990234,.200012207,.989990234,.420043945,1.479980469,.640014648,1.650024414,.729980469,3.25,1.530029297,4.809997559,2.380004883,0,.010009766,.010009766,.010009766,.010009766,.010009766,1.109985352,.599975586,2.190002441,1.229980469,3.260009766,1.869995117,.070007324,.049987793,.139953613,.090026855,.209960938,.130004883,.510009766,.320007324,1.020019531,.640014648,1.520019531,.960021973,.530029297,.349975586,1.059997559,.690002441,1.590026855,1.049987793h.00994873c1.400024414,.959960938,2.75,1.940002441,4.070007324,2.940002441,.66003418,.510009766,1.309997559,1.019958496,1.950012207,1.529968262,1.270019531,1.030029297,2.5,2.08001709,3.679992676,3.119995117,.880004883,.790039062,1.739990234,1.590026855,2.58001709,2.380004883,.840026855,.790039062,1.640014648,1.600036621,2.429992676,2.380004883,.390014648,.390014648,.770019531,.780029297,1.150024414,1.16998291,0,0,0,.010009766,.010009766,.010009766,.379943848,.400024414,.75,.790039062,1.109985352,1.179992676,.369995117,.390014648,.729980469,.780029297,1.079956055,1.16003418,.350036621,.380004883,.690002441,.770019531,1.030029297,1.149963379,.440002441,.510009766,.880004883,1.010009766,1.309997559,1.5,.210021973,.24005127,.41998291,.49005127,.619995117,.730041504,.210021973,.25,.41003418,.489990234,.609985352,.719970703v.010009766h-.00994873v5.220031738l-16.480041504,14.849975586c-1.380004883,1.25-3.029968262,1.809997559-4.640014648,1.809997559-3.58996582,0-7.00994873-2.770019531-7.00994873-6.909973145v-5.220031738"/>
  <path class="uuid-6d26e306-2994-4264-b6cb-41343c603f43" d="M59.662712097,94.928359985v5.219940186H12.620573044c-4.729252338,0-8.588594437-3.814613342-8.588594437-8.502494812v-5.219940186c0,2.338951111,.959861755,4.457015991,2.519598961,6.002960205,1.549729347,1.545883179,3.699334145,2.499534607,6.068995476,2.499534607H59.662712097Z"/>
  <polygon class="uuid-cf049c5f-46e2-423c-8985-9a982a01f803" points="87.789978027 97.109985352 87.789978027 97.119995117 87.780029297 97.130004883 87.780029297 97.109985352 87.789978027 97.109985352"/>
  <path class="uuid-41d1b08d-697b-42ba-993b-831065c56b2e" d="M108.440002441,78.479980469v5.220031738l-20.650024414,18.630004883-.00994873,.010009766-16.470031738,14.849975586c-1.380004883,1.25-3.029968262,1.809997559-4.640014648,1.809997559-3.58996582,0-7.010009766-2.770019531-7.010009766-6.91998291v-5.220031738c0,.780029297,.120056152,1.510009766,.340026855,2.179992676,.260009766,.780029297,.640014648,1.49005127,1.140014648,2.090026855v.010009766c.140014648,.16998291,.279968262,.329956055,.440002441,.489990234,1.309997559,1.369995117,3.179992676,2.150024414,5.08996582,2.150024414,.799987793,0,1.610046387-.140014648,2.400024414-.440002441h.010009766c.779968262-.290039062,1.539978027-.74005127,2.229980469-1.370056152l16.470031738-14.83996582v-.020019531h.00994873v-.010009766l20.640014648-18.619995117h.010009766Z"/>
  <path class="uuid-6d26e306-2994-4264-b6cb-41343c603f43" d="M87.779632568,97.118476868v5.219940186l-16.477294922,14.856712341c-1.379776001,1.244743347-3.029464722,1.806884766-4.639183044,1.806884766-3.589427948,0-7.008842468-2.770584106-7.008842468-6.916419983v-5.21987915c0,.772911072,.119976044,1.505752563,.3399086,2.17829895,.259967804,.782958984,.639907837,1.485649109,1.139823914,2.087989807v.009986877c.13999176,.170692444,.279983521,.331283569,.439929962,.491928101,1.309780121,1.365196228,3.179458618,2.148155212,5.089179993,2.148155212,.799858093,0,1.609718323-.140487671,2.39956665-.441688538,.010009766-.009986877,.010009766,0,.010009766,0,.779899597-.291091919,1.539718628-.742828369,2.229606628-1.365196228l16.477294922-14.856712341Z"/>
</svg>